<svg xmlns="http://www.w3.org/2000/svg" xmlns:xlink="http://www.w3.org/1999/xlink" width="348.995" height="305.787" viewBox="0 0 348.995 305.787">
  <defs>
    <clipPath id="clip-path">
      <rect id="Rectangle_2683" data-name="Rectangle 2683" width="338.384" height="305.787" fill="none"/>
    </clipPath>
    <clipPath id="clip-path-6">
      <rect id="Rectangle_2680" data-name="Rectangle 2680" width="8.761" height="27.807" fill="none"/>
    </clipPath>
    <clipPath id="clip-path-7">
      <rect id="Rectangle_2681" data-name="Rectangle 2681" width="15.103" height="27.08" fill="none"/>
    </clipPath>
    <clipPath id="clip-path-8">
      <rect id="Rectangle_2685" data-name="Rectangle 2685" width="20.329" height="23.431" fill="none"/>
    </clipPath>
    <clipPath id="clip-path-9">
      <rect id="Rectangle_2685-2" data-name="Rectangle 2685" width="12.772" height="14.721" fill="none"/>
    </clipPath>
  </defs>
  <g id="illustration-man-capture" transform="translate(10.611)">
    <g id="Group_418" data-name="Group 418" clip-path="url(#clip-path)">
      <g id="Group_405" data-name="Group 405">
        <g id="Group_404" data-name="Group 404" clip-path="url(#clip-path)">
          <path id="Path_1248" data-name="Path 1248" d="M0,382.685c108.395-.488,229.989-.492,338.384,0-108.4.492-229.989.488-338.384,0" transform="translate(0 -77.751)" fill="#263238"/>
        </g>
      </g>
      <rect id="Rectangle_2643" data-name="Rectangle 2643" width="131.001" height="218.454" transform="translate(103.78 67.74)" fill="#f5f5f5"/>
      <rect id="Rectangle_2644" data-name="Rectangle 2644" width="131.001" height="218.454" transform="translate(103.5 67.74)" fill="none" stroke="#fe8e14" stroke-miterlimit="10" stroke-width="1"/>
      <g id="Group_407" data-name="Group 407">
        <g id="Group_406" data-name="Group 406" clip-path="url(#clip-path)">
          <path id="Path_1249" data-name="Path 1249" d="M259.045.5H124.366a13.749,13.749,0,0,0-13.622,13.877V291.613a13.759,13.759,0,0,0,13.622,13.877H259.045a13.773,13.773,0,0,0,13.638-13.877V14.377A13.762,13.762,0,0,0,259.045.5Zm5.114,282.542c0,7.3-5.465,13.2-12.2,13.2H131.472c-6.755,0-12.22-5.9-12.22-13.2V24.885c0-14.865,5.465-15.59,12.22-15.59H155.61c1.4,0,2.549,1.593,2.549,3.569v.852c0,4.628,2.533,4.644,5.64,4.644h55.812c3.139,0,5.656-.016,5.656-4.644v-.852c0-1.976,1.131-3.569,2.557-3.569h24.13c6.74,0,12.2,1.976,12.2,15.59Z" transform="translate(-22.522 -0.102)" fill="none" stroke="#323234" stroke-miterlimit="10" stroke-width="1"/>
          <path id="Path_1250" data-name="Path 1250" d="M266.331,27.13V56.2H121.424V27.13c0-14.865,5.465-15.59,12.22-15.59h24.138c1.4,0,2.549,1.593,2.549,3.569v.852c0,4.628,2.533,4.644,5.64,4.644h55.812c3.139,0,5.656-.016,5.656-4.644v-.852c0-1.976,1.131-3.569,2.557-3.569h24.13c6.74,0,12.2,1.976,12.2,15.59" transform="translate(-24.694 -2.347)" fill="#fe8e14"/>
          <path id="Path_1251" data-name="Path 1251" d="M160.5,18.541l-.233.232-.132.132a3.173,3.173,0,0,0-4.5,0c-.041-.043-.083-.088-.126-.131l-.23-.231-.007,0v-.006l.018-.014c.1-.087.194-.178.295-.26a3.622,3.622,0,0,1,1.586-.738c.149-.028.3-.041.451-.061.052-.006.386-.007.4-.006.1.008.206.012.308.023a3.5,3.5,0,0,1,.829.2,3.663,3.663,0,0,1,.561.262,3.568,3.568,0,0,1,.535.375c.084.072.164.147.246.221Z" transform="translate(-31.578 -3.55)" fill="#fff"/>
          <path id="Path_1252" data-name="Path 1252" d="M156.565,19.9l-.369-.366a2.6,2.6,0,0,1,1.5-.753,2.629,2.629,0,0,1,2.255.748l-.37.368a2.134,2.134,0,0,0-3.016,0" transform="translate(-31.765 -3.815)" fill="#fff"/>
          <path id="Path_1253" data-name="Path 1253" d="M159.4,20.536l-.366.366a1.09,1.09,0,0,0-1.545,0l-.366-.366a1.6,1.6,0,0,1,2.278,0" transform="translate(-31.954 -4.08)" fill="#fff"/>
          <path id="Path_1254" data-name="Path 1254" d="M158.8,21.45a.331.331,0,1,1-.331-.331.331.331,0,0,1,.331.331" transform="translate(-32.16 -4.295)" fill="#fff"/>
          <path id="Path_1255" data-name="Path 1255" d="M133.289,19.458a.96.96,0,1,1,.961.961.96.96,0,0,1-.961-.961" transform="translate(-27.107 -3.762)" fill="#fff"/>
          <path id="Path_1256" data-name="Path 1256" d="M137.086,19.458a.96.96,0,1,1,.96.961.96.96,0,0,1-.96-.961" transform="translate(-27.879 -3.762)" fill="#fff"/>
          <path id="Path_1257" data-name="Path 1257" d="M140.883,19.458a.96.96,0,1,1,.961.961.96.96,0,0,1-.961-.961" transform="translate(-28.651 -3.762)" fill="#fff"/>
          <path id="Path_1258" data-name="Path 1258" d="M144.68,19.458a.96.96,0,1,1,.96.961.96.96,0,0,1-.96-.961" transform="translate(-29.423 -3.762)" fill="#fff"/>
          <path id="Path_1259" data-name="Path 1259" d="M148.477,19.458a.96.96,0,1,1,.96.961.96.96,0,0,1-.96-.961" transform="translate(-30.195 -3.762)" fill="#fff"/>
          <path id="Path_1260" data-name="Path 1260" d="M287.686,21.409h-7.818V17.788h7.818Zm-7.42-.4h7.021V18.186h-7.021Z" transform="translate(-56.916 -3.618)" fill="#fff"/>
          <rect id="Rectangle_2645" data-name="Rectangle 2645" width="5.039" height="2.392" transform="translate(223.6 14.786)" fill="#fff"/>
          <rect id="Rectangle_2646" data-name="Rectangle 2646" width="0.695" height="1.937" transform="translate(230.775 15.013)" fill="#fff"/>
          <path id="Path_1261" data-name="Path 1261" d="M140.641,56.813l-4.165-3.9,4.165-3.9.646.688-3.43,3.214,3.43,3.214Z" transform="translate(-27.755 -9.967)" fill="#fff"/>
          <path id="Path_1262" data-name="Path 1262" d="M288.281,50.648a.819.819,0,1,1-.819-.819.819.819,0,0,1,.819.819" transform="translate(-58.294 -10.134)" fill="#fff"/>
          <path id="Path_1263" data-name="Path 1263" d="M288.281,54.306a.819.819,0,1,1-.819-.819.819.819,0,0,1,.819.819" transform="translate(-58.294 -10.878)" fill="#fff"/>
          <path id="Path_1264" data-name="Path 1264" d="M288.281,57.963a.819.819,0,1,1-.819-.819.819.819,0,0,1,.819.819" transform="translate(-58.294 -11.621)" fill="#fff"/>
        </g>
      </g>
      <text id="Mobile_Web_Capture" data-name="Mobile Web Capture" transform="translate(131 44.822)" fill="#fff" font-size="9" font-family="MyriadPro-Regular, Myriad Pro"><tspan x="0" y="0" letter-spacing="0.006em">M</tspan><tspan y="0">obile</tspan><tspan y="0" letter-spacing="-0.035em"> </tspan><tspan y="0" letter-spacing="-0.032em">W</tspan><tspan y="0">eb </tspan><tspan y="0" letter-spacing="-0.006em">C</tspan><tspan y="0">aptu</tspan><tspan y="0" letter-spacing="-0.01em">r</tspan><tspan y="0">e</tspan></text>
      <g id="Group_409" data-name="Group 409">
        <g id="Group_408" data-name="Group 408" clip-path="url(#clip-path)">
          <path id="Path_1265" data-name="Path 1265" d="M266.331,27.13V285.287c0,7.3-5.465,13.2-12.2,13.2H133.644c-6.755,0-12.22-5.9-12.22-13.2V27.13c0-14.865,5.465-15.59,12.22-15.59h24.138c1.4,0,2.549,1.593,2.549,3.569v.852c0,4.628,2.533,4.644,5.64,4.644h55.812c3.139,0,5.656-.016,5.656-4.644v-.852c0-1.976,1.131-3.569,2.557-3.569h24.13C260.867,11.54,266.331,13.516,266.331,27.13Z" transform="translate(-24.694 -2.347)" fill="none" stroke="#606060" stroke-miterlimit="10" stroke-width="1"/>
          <path id="Path_1266" data-name="Path 1266" d="M217.808,15.183H202.585a.94.94,0,1,1,0-1.881h15.224a.94.94,0,0,1,0,1.881" transform="translate(-41.008 -2.705)" fill="#fff"/>
          <rect id="Rectangle_2648" data-name="Rectangle 2648" width="121.606" height="93.437" transform="translate(108.381 85.123)" fill="#fff"/>
          <path id="Path_1267" data-name="Path 1267" d="M152.4,132.12a10.84,10.84,0,1,0,8.51-8.51,10.849,10.849,0,0,0-8.51,8.51" transform="translate(-30.952 -25.097)" fill="#89c2b9"/>
          <path id="Path_1268" data-name="Path 1268" d="M178.376,186.8h87.887l-43.944-49.277Z" transform="translate(-36.276 -27.968)" fill="#89c2b9"/>
          <path id="Path_1269" data-name="Path 1269" d="M136.049,191.244h72.56l-36.279-32.088Z" transform="translate(-27.668 -32.367)" fill="#ffc727"/>
          <path id="Path_1270" data-name="Path 1270" d="M136.049,191.244h72.56l-36.279-32.088Z" transform="translate(-27.668 -32.367)" fill="#89c2b9"/>
          <rect id="Rectangle_2649" data-name="Rectangle 2649" width="121.606" height="19.727" transform="translate(108.381 158.833)" fill="#ffc727"/>
          <rect id="Rectangle_2650" data-name="Rectangle 2650" width="121.606" height="19.727" transform="translate(108.381 158.833)" fill="#fff"/>
          <rect id="Rectangle_2651" data-name="Rectangle 2651" width="62.575" height="1.37" transform="translate(108.103 206.514)" fill="#dbdbdb"/>
          <rect id="Rectangle_2652" data-name="Rectangle 2652" width="62.575" height="1.37" transform="translate(108.103 209.722)" fill="#dbdbdb"/>
          <rect id="Rectangle_2653" data-name="Rectangle 2653" width="62.575" height="1.369" transform="translate(108.103 212.931)" fill="#dbdbdb"/>
          <rect id="Rectangle_2654" data-name="Rectangle 2654" width="62.575" height="1.37" transform="translate(108.103 231.751)" fill="#dbdbdb"/>
          <rect id="Rectangle_2655" data-name="Rectangle 2655" width="62.575" height="1.37" transform="translate(108.103 234.959)" fill="#dbdbdb"/>
          <rect id="Rectangle_2656" data-name="Rectangle 2656" width="39.487" height="1.37" transform="translate(108.102 238.167)" fill="#dbdbdb"/>
          <rect id="Rectangle_2657" data-name="Rectangle 2657" width="62.575" height="1.369" transform="translate(108.103 216.14)" fill="#dbdbdb"/>
          <rect id="Rectangle_2658" data-name="Rectangle 2658" width="62.575" height="1.369" transform="translate(108.103 219.348)" fill="#dbdbdb"/>
          <rect id="Rectangle_2659" data-name="Rectangle 2659" width="62.575" height="1.369" transform="translate(108.103 222.556)" fill="#dbdbdb"/>
          <rect id="Rectangle_2660" data-name="Rectangle 2660" width="47.434" height="1.369" transform="translate(108.103 225.764)" fill="#dbdbdb"/>
          <rect id="Rectangle_2661" data-name="Rectangle 2661" width="121.079" height="1.369" transform="translate(108.102 249.516)" fill="#dbdbdb"/>
          <rect id="Rectangle_2662" data-name="Rectangle 2662" width="121.079" height="1.369" transform="translate(108.102 252.724)" fill="#dbdbdb"/>
          <rect id="Rectangle_2663" data-name="Rectangle 2663" width="121.079" height="1.369" transform="translate(108.102 255.933)" fill="#dbdbdb"/>
          <rect id="Rectangle_2664" data-name="Rectangle 2664" width="121.079" height="1.369" transform="translate(108.102 259.141)" fill="#dbdbdb"/>
          <rect id="Rectangle_2665" data-name="Rectangle 2665" width="71.409" height="1.369" transform="translate(108.102 262.349)" fill="#dbdbdb"/>
          <path id="Path_1271" data-name="Path 1271" d="M223.665,260.513l25.5-.068c8.5.024,17,.01,25.5.068-8.5.059-17,.044-25.5.068Z" transform="translate(-45.486 -52.966)" fill="#c7c7c7"/>
          <path id="Path_1272" data-name="Path 1272" d="M223.665,263.124l25.5-.068c8.5.024,17,.01,25.5.068-8.5.058-17,.044-25.5.068Z" transform="translate(-45.486 -53.497)" fill="#c7c7c7"/>
          <path id="Path_1273" data-name="Path 1273" d="M223.665,265.734l25.5-.068c8.5.024,17,.01,25.5.068-8.5.059-17,.044-25.5.068Z" transform="translate(-45.486 -54.028)" fill="#c7c7c7"/>
          <path id="Path_1274" data-name="Path 1274" d="M223.665,268.345l25.5-.068c8.5.024,17,.01,25.5.068-8.5.059-17,.044-25.5.068Z" transform="translate(-45.486 -54.559)" fill="#c7c7c7"/>
          <path id="Path_1275" data-name="Path 1275" d="M223.665,270.956l25.5-.068c8.5.024,17,.01,25.5.068-8.5.059-17,.044-25.5.068Z" transform="translate(-45.486 -55.09)" fill="#c7c7c7"/>
          <path id="Path_1276" data-name="Path 1276" d="M223.665,273.567l25.5-.068c8.5.024,17,.01,25.5.068-8.5.058-17,.044-25.5.068Z" transform="translate(-45.486 -55.621)" fill="#c7c7c7"/>
          <path id="Path_1277" data-name="Path 1277" d="M223.665,276.177l25.5-.068c8.5.024,17,.01,25.5.068-8.5.059-17,.044-25.5.068Z" transform="translate(-45.486 -56.152)" fill="#c7c7c7"/>
          <path id="Path_1278" data-name="Path 1278" d="M223.665,278.788l25.5-.068c8.5.024,17,.009,25.5.068-8.5.058-17,.044-25.5.068Z" transform="translate(-45.486 -56.683)" fill="#c7c7c7"/>
          <path id="Path_1279" data-name="Path 1279" d="M223.665,281.4l25.5-.068c8.5.024,17,.009,25.5.068-8.5.058-17,.044-25.5.068Z" transform="translate(-45.486 -57.214)" fill="#c7c7c7"/>
          <path id="Path_1280" data-name="Path 1280" d="M223.665,284.009l25.5-.068c8.5.024,17,.01,25.5.068-8.5.058-17,.044-25.5.068Z" transform="translate(-45.486 -57.744)" fill="#c7c7c7"/>
          <path id="Path_1281" data-name="Path 1281" d="M223.665,286.62l25.5-.068c8.5.024,17,.009,25.5.068-8.5.058-17,.044-25.5.068Z" transform="translate(-45.486 -58.275)" fill="#c7c7c7"/>
          <path id="Path_1282" data-name="Path 1282" d="M223.665,289.231l25.5-.068c8.5.024,17,.01,25.5.068-8.5.058-17,.044-25.5.068Z" transform="translate(-45.486 -58.806)" fill="#c7c7c7"/>
          <path id="Path_1283" data-name="Path 1283" d="M223.665,291.841l25.5-.068c8.5.024,17,.009,25.5.068-8.5.058-17,.044-25.5.068Z" transform="translate(-45.486 -59.337)" fill="#c7c7c7"/>
          <path id="Path_1284" data-name="Path 1284" d="M223.665,294.452l25.5-.068c8.5.024,17,.009,25.5.068-8.5.058-17,.044-25.5.068Z" transform="translate(-45.486 -59.868)" fill="#c7c7c7"/>
          <path id="Path_1285" data-name="Path 1285" d="M223.665,297.063l25.5-.068c8.5.024,17,.009,25.5.068-8.5.058-17,.044-25.5.068Z" transform="translate(-45.486 -60.399)" fill="#c7c7c7"/>
          <rect id="Rectangle_2666" data-name="Rectangle 2666" width="3.868" height="16.983" transform="translate(183.572 222.105)" fill="#fe8e14"/>
          <rect id="Rectangle_2667" data-name="Rectangle 2667" width="3.868" height="24.167" transform="translate(190.746 214.921)" fill="#455a64"/>
          <rect id="Rectangle_2668" data-name="Rectangle 2668" width="3.868" height="18.991" transform="translate(197.922 220.098)" fill="#a6a6a6"/>
          <rect id="Rectangle_2669" data-name="Rectangle 2669" width="3.868" height="25.302" transform="translate(205.096 213.786)" fill="#fe8e14"/>
          <rect id="Rectangle_2670" data-name="Rectangle 2670" width="3.868" height="21.909" transform="translate(212.271 217.179)" fill="#455a64"/>
          <rect id="Rectangle_2671" data-name="Rectangle 2671" width="3.868" height="9.495" transform="translate(219.446 229.593)" fill="#a6a6a6"/>
          <path id="Path_1286" data-name="Path 1286" d="M225.338,258.7l.105,8.25.072,8.251c.05,5.5.065,11,.074,16.5l-.252-.251,12.4-.01,12.405.029,12.4.083,12.4.149-12.4.15-12.4.083-12.405.029-12.4-.01h-.252V291.7c.009-5.5.024-11,.073-16.5l.072-8.251Z" transform="translate(-45.775 -52.611)" fill="#c7c7c7"/>
          <rect id="Rectangle_2672" data-name="Rectangle 2672" width="3.868" height="0.35" transform="translate(183.572 240.832)" fill="#c7c7c7"/>
          <rect id="Rectangle_2673" data-name="Rectangle 2673" width="3.868" height="0.35" transform="translate(190.746 240.832)" fill="#c7c7c7"/>
          <rect id="Rectangle_2674" data-name="Rectangle 2674" width="3.868" height="0.35" transform="translate(197.922 240.832)" fill="#c7c7c7"/>
          <rect id="Rectangle_2675" data-name="Rectangle 2675" width="3.868" height="0.35" transform="translate(205.096 240.832)" fill="#c7c7c7"/>
          <rect id="Rectangle_2676" data-name="Rectangle 2676" width="3.868" height="0.35" transform="translate(212.271 240.832)" fill="#c7c7c7"/>
          <rect id="Rectangle_2677" data-name="Rectangle 2677" width="3.868" height="0.35" transform="translate(219.446 240.832)" fill="#c7c7c7"/>
          <rect id="Rectangle_2678" data-name="Rectangle 2678" width="121.577" height="10.798" transform="translate(108.103 186.538)" fill="#7a7a7a"/>
          <path id="Path_1287" data-name="Path 1287" d="M132.386,83.423a2.39,2.39,0,1,1-2.39-2.39,2.39,2.39,0,0,1,2.39,2.39" transform="translate(-25.951 -16.479)" fill="#fff"/>
          <circle id="Ellipse_63" data-name="Ellipse 63" cx="2.39" cy="2.39" r="2.39" transform="translate(101.655 64.553)" fill="none" stroke="#fe8e14" stroke-miterlimit="10" stroke-width="1"/>
          <path id="Path_1288" data-name="Path 1288" d="M295.164,84.2a2.39,2.39,0,1,1-2.39-2.39,2.39,2.39,0,0,1,2.39,2.39" transform="translate(-59.055 -16.637)" fill="#fff"/>
          <circle id="Ellipse_64" data-name="Ellipse 64" cx="2.39" cy="2.39" r="2.39" transform="translate(231.329 65.173)" fill="none" stroke="#fe8e14" stroke-miterlimit="10" stroke-width="1"/>
          <path id="Path_1289" data-name="Path 1289" d="M133.331,358.589a2.39,2.39,0,1,1-2.39-2.39,2.39,2.39,0,0,1,2.39,2.39" transform="translate(-26.143 -72.439)" fill="#fff"/>
          <circle id="Ellipse_65" data-name="Ellipse 65" cx="2.39" cy="2.39" r="2.39" transform="translate(102.408 283.76)" fill="none" stroke="#fe8e14" stroke-miterlimit="10" stroke-width="1"/>
          <path id="Path_1290" data-name="Path 1290" d="M296.553,358.478a2.39,2.39,0,1,1-2.39-2.39,2.39,2.39,0,0,1,2.39,2.39" transform="translate(-59.337 -72.417)" fill="#fff"/>
          <circle id="Ellipse_66" data-name="Ellipse 66" cx="2.39" cy="2.39" r="2.39" transform="translate(232.436 283.671)" fill="none" stroke="#fe8e14" stroke-miterlimit="10" stroke-width="1"/>
        </g>
      </g>
      <g id="Group_417" data-name="Group 417">
        <g id="Group_416" data-name="Group 416" clip-path="url(#clip-path)">
          <path id="Path_1291" data-name="Path 1291" d="M329.905,280.951s-21.285,25.375-21.3,25.392c-4.1,4.832-7.6,9.14-9.206,11.538a.087.087,0,0,0-.025.039,4.409,4.409,0,0,0-.909,1.795.168.168,0,0,0,0,.054c.612,2.193,38.266,36.052,39.977,36.79s3.951-4.078,3.538-6.558-9.037-21.9-9.037-21.9l21.036-25.566Z" transform="translate(-60.698 -57.136)" fill="#d3766a"/>
          <path id="Path_1292" data-name="Path 1292" d="M312.975,306.287l-4.37,5.209c-4.1,4.832-7.6,9.14-9.206,11.538a.1.1,0,0,0-.026.04,8.632,8.632,0,0,0-.909,1.794.2.2,0,0,0,0,.055c.613,2.193,38.267,36.052,39.977,36.79s3.951-4.079,3.538-6.559-9.038-21.9-9.038-21.9l4.508-5.226Z" transform="translate(-60.698 -62.289)" fill="#ebebeb"/>
          <path id="Path_1293" data-name="Path 1293" d="M338.443,362.991c-1.714-.739-39.365-34.595-39.978-36.794-.247-.832,4.366-6.606,10.141-13.422l.182-.212,24.535,21.57-.38.4s8.616,19.405,9.036,21.9c.412,2.475-1.827,7.3-3.536,6.558" transform="translate(-60.696 -63.565)" fill="#fff"/>
          <path id="Path_1294" data-name="Path 1294" d="M338.443,362.991c-1.714-.739-39.365-34.595-39.978-36.794-.247-.832,4.366-6.606,10.141-13.422l.182-.212,24.535,21.57-.38.4s8.616,19.405,9.036,21.9C342.391,358.908,340.152,363.736,338.443,362.991Z" transform="translate(-60.696 -63.565)" fill="none" stroke="#323234" stroke-miterlimit="10" stroke-width="1"/>
          <path id="Path_1295" data-name="Path 1295" d="M342.152,339.579v.113l.061-.061Z" transform="translate(-69.583 -69.059)" fill="#020100"/>
          <g id="Group_412" data-name="Group 412" transform="translate(272.569 271.698)" opacity="0.1">
            <g id="Group_411" data-name="Group 411">
              <g id="Group_410" data-name="Group 410" clip-path="url(#clip-path-6)">
                <path id="Path_1296" data-name="Path 1296" d="M350.863,362.225c-.366-2.2-7.149-17.622-8.711-21.167V364.52a62.871,62.871,0,0,0,5.176,4.268c1.711.742,3.946-4.084,3.535-6.563" transform="translate(-342.152 -341.058)" fill="#020100"/>
              </g>
            </g>
          </g>
          <path id="Path_1297" data-name="Path 1297" d="M339.952,364.8c-6.207-5.863-31.794-28.925-38.375-34.248-.053-.044-.085-.009-.036.04,6.025,5.945,31.8,28.8,38.317,34.313.138.115.224.019.093-.1" transform="translate(-61.319 -67.22)" fill="#263238"/>
          <path id="Path_1298" data-name="Path 1298" d="M341.906,341.262c-2.078-2.712-5.478-5.075-8.986-5.012-.136,0-.131.2-.027.243a47.172,47.172,0,0,1,8.719,5.075.215.215,0,0,0,.294-.307" transform="translate(-67.684 -68.382)" fill="#263238"/>
          <path id="Path_1299" data-name="Path 1299" d="M342.943,344.661c-2.078-2.712-5.478-5.075-8.986-5.012-.136,0-.131.2-.027.243a47.227,47.227,0,0,1,8.72,5.076.215.215,0,0,0,.293-.307" transform="translate(-67.895 -69.073)" fill="#263238"/>
          <path id="Path_1300" data-name="Path 1300" d="M343.98,348.06c-2.078-2.712-5.478-5.075-8.987-5.012-.135,0-.13.2-.026.243a47.218,47.218,0,0,1,8.719,5.075.215.215,0,0,0,.294-.307" transform="translate(-68.106 -69.765)" fill="#263238"/>
          <path id="Path_1301" data-name="Path 1301" d="M342.448,220.71c-1.824,9.012-32.871,55.063-32.871,55.063l27.579,25.241s45.234-58.231,42.463-78.144c-2.411-17.322-28.343-86.978-28.343-86.978H321.358s22.884,75.955,21.09,84.817" transform="translate(-62.958 -27.636)" fill="#323234"/>
          <path id="Path_1302" data-name="Path 1302" d="M341.006,327.124c-4-3.821-2.8-2.781-6.838-6.558-1.977-1.848-14.984-13.981-17.13-15.381-.048-.031-.112.038-.077.083,1.581,2.018,14.8,13.922,16.809,15.731,4.113,3.7,2.973,2.592,7.126,6.243a.081.081,0,0,0,.11-.119" transform="translate(-64.458 -62.063)" fill="#686868"/>
          <path id="Path_1303" data-name="Path 1303" d="M350.166,218.9c-.429-2.25-.915-4.491-1.391-6.731q-1.46-6.864-3.087-13.689-3.231-13.536-7.029-26.923c-2.551-8.953-5.246-17.891-8.351-26.67-.384-1.084-.779-2.165-1.175-3.246a.068.068,0,0,0-.131.04c2.689,8.794,5.459,17.563,7.981,26.408q3.768,13.214,7.025,26.558c1.1,4.465,2.124,8.949,3.124,13.437q.738,3.308,1.441,6.623a47.383,47.383,0,0,1,1.252,6.826,10.38,10.38,0,0,1-1.758,6.148c-1.121,1.835-25.013,42.635-25.8,43.373-.061.057.033.145.094.089,3.269-2.933,27.078-44.017,27.72-45.94a12.342,12.342,0,0,0,.082-6.3" transform="translate(-65.535 -28.797)" fill="#686868"/>
          <path id="Path_1304" data-name="Path 1304" d="M342.1,320.124s6.458,31.448,6.458,31.471c.087,6.333.275,11.884.64,14.746a.094.094,0,0,0,.007.046,4.425,4.425,0,0,0,.494,1.95c.015.016.022.031.037.039,1.9,1.251,52.535,2.038,54.31,1.471s.3-5.671-1.642-7.269c-1.957-1.6-21.2-10.569-21.2-10.569l-6.772-31.428Z" transform="translate(-69.573 -65.103)" fill="#d3766a"/>
          <path id="Path_1305" data-name="Path 1305" d="M405.415,376.483c-1.775.566-52.411-.217-54.311-1.467-.017-.008-.026-.025-.042-.041a4.453,4.453,0,0,1-.492-1.95.109.109,0,0,1-.008-.049c-.366-2.858-.55-8.408-.642-14.741,0-.008-1.117-5.474-1.117-5.474h32.5l1.265,5.883s19.247,8.974,21.206,10.574c1.933,1.6,3.425,6.708,1.642,7.266" transform="translate(-70.935 -71.74)" fill="#ebebeb"/>
          <path id="Path_1306" data-name="Path 1306" d="M405.7,377.811c-1.778.569-52.406-.217-54.313-1.472-.733-.464-1.048-7.848-1.174-16.781,0-.093,0-.186,0-.28l32.668.142-.021.554s19.244,8.968,21.2,10.57c1.937,1.595,3.421,6.706,1.643,7.267" transform="translate(-71.222 -73.065)" fill="#fff"/>
          <path id="Path_1307" data-name="Path 1307" d="M405.7,377.811c-1.778.569-52.406-.217-54.313-1.472-.733-.464-1.048-7.848-1.174-16.781,0-.093,0-.186,0-.28l32.668.142-.021.554s19.244,8.968,21.2,10.57C405.993,372.139,407.477,377.25,405.7,377.811Z" transform="translate(-71.222 -73.065)" fill="none" stroke="#323234" stroke-miterlimit="10" stroke-width="1"/>
          <path id="Path_1308" data-name="Path 1308" d="M406.04,379.89c-8.531-.342-42.972-.916-51.431-.606-.069,0-.069.049,0,.054,8.448.523,42.893.818,51.431.691.18,0,.182-.132,0-.139" transform="translate(-72.105 -77.116)" fill="#263238"/>
          <path id="Path_1309" data-name="Path 1309" d="M392.057,360.256c-3.349-.679-7.464-.227-10.068,2.126-.1.091.03.233.139.2a47.293,47.293,0,0,1,9.909-1.9.215.215,0,0,0,.02-.424" transform="translate(-77.677 -73.206)" fill="#263238"/>
          <path id="Path_1310" data-name="Path 1310" d="M395.072,362.137c-3.348-.679-7.464-.227-10.068,2.125-.1.092.03.233.14.2a47.215,47.215,0,0,1,9.907-1.9.215.215,0,0,0,.021-.424" transform="translate(-78.29 -73.588)" fill="#263238"/>
          <path id="Path_1311" data-name="Path 1311" d="M398.086,364.018c-3.349-.679-7.464-.227-10.068,2.126-.1.091.03.233.139.2a47.244,47.244,0,0,1,9.909-1.9.215.215,0,0,0,.02-.424" transform="translate(-78.903 -73.971)" fill="#263238"/>
          <path id="Path_1312" data-name="Path 1312" d="M349.1,135.89a121.893,121.893,0,0,0-2.57,14.928c-.624,6.262-1.406,11.8-2.241,12.49-.946.778-5.673,3.815-7.265,4.786,0,0,14.742,44.687,18.546,59.583,5.514,21.6,18.723,86.383,18.723,86.383l-35.194,0s-10.7-61.678-15.38-82.236c-4.01-17.625-19.375-70.5-19.375-70.5a30.7,30.7,0,0,1,1.244-25.425s43.515-.024,43.511,0" transform="translate(-61.446 -27.634)" fill="#323234"/>
          <path id="Path_1313" data-name="Path 1313" d="M382.807,350.93c-5.532-.029-3.944-.1-9.475-.067-2.706.016-20.493.137-23.014.6a.058.058,0,0,0,0,.112c2.534.38,20.315-.051,23.02-.119,5.531-.139,3.941-.159,9.468-.361a.081.081,0,0,0,0-.161" transform="translate(-71.235 -71.352)" fill="#686868"/>
          <path id="Path_1314" data-name="Path 1314" d="M355.682,168.086a67.2,67.2,0,0,0-9.709,6.5.119.119,0,0,0,.131.2c3.29-2.061,6.661-4.068,9.833-6.308a.234.234,0,0,0-.255-.391" transform="translate(-70.35 -34.177)" fill="#686868"/>
          <path id="Path_1315" data-name="Path 1315" d="M353.385,137.554c-.028-.12-.246-.114-.225.018a118.96,118.96,0,0,1,1.238,11.871c.118,1.842.215,12.1-3.047,11.861-.546-.041-.9-.518-1.1-1.3a12.74,12.74,0,0,1-.059-3.143c.023-2.155-.024-4.307-.173-6.457a58.246,58.246,0,0,0-1.971-11.852.1.1,0,0,0-.2.043,110.229,110.229,0,0,1,1.585,16.538c.011,2.671-.693,6.8,2.1,6.783,2.845-.023,3.622-6.884,3.681-8.738a60.863,60.863,0,0,0-1.824-15.624" transform="translate(-70.74 -27.957)" fill="#686868"/>
          <path id="Path_1316" data-name="Path 1316" d="M352.278,167.641a17.161,17.161,0,0,0-.386,2.19,4.771,4.771,0,0,0-.029,1.756c.03.109.178.1.225.013a6.1,6.1,0,0,0,.473-1.777c.139-.68.294-1.359.414-2.043a.356.356,0,0,0-.7-.138" transform="translate(-71.542 -34.037)" fill="#686868"/>
          <path id="Path_1317" data-name="Path 1317" d="M342.938,326.221c-.093-.842-.2-1.683-.319-2.522-.221-1.613-.483-3.219-.723-4.829-.481-3.234-1.018-6.458-1.572-9.681-1.1-6.425-2.379-12.83-3.723-19.206-.76-3.6-1.643-7.167-2.576-10.727-.065-.248-.4-.128-.362.113.566,3.259,1.112,6.52,1.757,9.764s1.283,6.469,1.906,9.707c1.229,6.4,2.375,12.82,3.6,19.224.346,1.807.66,3.62,1,5.427q.256,1.354.535,2.7c.186.9.457,1.777.6,2.68.014.085.138.045.124-.039-.135-.862-.151-1.745-.247-2.613" transform="translate(-67.856 -56.764)" fill="#686868"/>
          <path id="Path_1318" data-name="Path 1318" d="M368.245,249.316c-1.172-5.839-2.752-11.6-4.341-17.34-3.2-11.549-6.963-22.929-10.719-34.305q-1.623-4.917-3.246-9.834c-.542-1.638-3.2-10.475-3.524-11.315a.072.072,0,0,0-.137.041c.76,3.01,1.8,7.4,2.682,10.379.868,2.945,1.816,5.869,2.731,8.8,1.8,5.762,3.625,11.515,5.372,17.292,3.449,11.42,6.876,22.835,9.676,34.436.785,3.249,1.566,6.494,2.281,9.759s2.846,11.342,3.528,14.607c.018.089.168.065.159-.025-.589-5.951-3.286-16.637-4.462-22.495" transform="translate(-70.421 -35.889)" fill="#686868"/>
          <path id="Path_1319" data-name="Path 1319" d="M338.141,272c-1.937-11.14-4.258-22.22-6.829-33.23q-3.875-16.6-8.63-32.972c-3.169-10.91-6.681-21.724-10.453-32.44a135.545,135.545,0,0,1-4.78-15.432c-1.16-5.2-1.749-10.833-.538-16.082a26.749,26.749,0,0,1,1.2-3.91c.035-.088-.093-.163-.131-.072-4.233,9.862-1.486,20.649,1.737,30.372,1.765,5.327,3.649,10.614,5.391,15.949q2.68,8.215,5.138,16.5c3.248,10.944,6.264,21.954,8.965,33.048s5.107,22.252,7.224,33.469c2.125,11.256,3.91,22.559,5.721,33.868.236,1.471.422,2.95.615,4.428.01.082.14.08.13,0-1.356-11.205-2.828-22.369-4.762-33.492" transform="translate(-62.194 -28.029)" fill="#686868"/>
          <path id="Path_1320" data-name="Path 1320" d="M394.43,39.671l-6.867,21.9c-.275.638.022,1.187.663,1.224l11.464.655a1.86,1.86,0,0,0,1.658-1.091l6.867-21.9c.275-.64-.023-1.187-.663-1.224l-11.464-.655a1.857,1.857,0,0,0-1.659,1.091" transform="translate(-78.797 -7.846)" fill="#fff"/>
          <path id="Path_1321" data-name="Path 1321" d="M394.43,39.671l-6.867,21.9c-.275.638.022,1.187.663,1.224l11.464.655a1.86,1.86,0,0,0,1.658-1.091l6.867-21.9c.275-.64-.023-1.187-.663-1.224l-11.464-.655A1.857,1.857,0,0,0,394.43,39.671Z" transform="translate(-78.797 -7.846)" fill="none" stroke="#323234" stroke-miterlimit="10" stroke-width="1"/>
          <path id="Path_1322" data-name="Path 1322" d="M399.585,41.18a.976.976,0,1,1-.9-1.05.976.976,0,0,1,.9,1.05" transform="translate(-80.866 -8.161)" fill="#263238"/>
          <path id="Path_1323" data-name="Path 1323" d="M402.242,64.872a24.53,24.53,0,0,0-.554-3.535c-1.021-5.169-2.012-6.609-.4-11.727,1.109-3.512-.658-5.728-3.378-3.03a12.732,12.732,0,0,0-2.555,3.732,27.339,27.339,0,0,0-7.018-4.753c-2.774-1.338-7.674-1.276-3.937,2.553,2.654,2.72,5.158,3.643,6.414,5.506-4.519-1.748-11.653-3.47-12.875-.639-1,2.31,2.238,3.552,2.238,3.552s-3.81-.271-4.254,2.013c-.405,2.081,2.155,2.892,2.155,2.892s-2.34.233-2.343,2.313c0,2.153,3.622,1.793,6.027,3.267a10.755,10.755,0,0,0,1,5.228l.081.031c-4.236,5.181-8.384,11.752-9.053,11.656-3.068-.437-14.46-11.272-22.408-18.9-9.649-9.256-8.312,1.686-6.091,7.359,5.572,14.236,18.946,33.129,24.963,33.605,2.863.227,7.935,1.25,11.914-1.795,8.68-6.644,16.446-19.933,18.365-27.708,0-.007,0-.015,0-.022.864-2.787,2.049-7.51,1.7-11.6" transform="translate(-69.897 -9.105)" fill="#fff"/>
          <path id="Path_1324" data-name="Path 1324" d="M402.242,64.872a24.53,24.53,0,0,0-.554-3.535c-1.021-5.169-2.012-6.609-.4-11.727,1.109-3.512-.658-5.728-3.378-3.03a12.732,12.732,0,0,0-2.555,3.732,27.339,27.339,0,0,0-7.018-4.753c-2.774-1.338-7.674-1.276-3.937,2.553,2.654,2.72,5.158,3.643,6.414,5.506-4.519-1.748-11.653-3.47-12.875-.639-1,2.31,2.238,3.552,2.238,3.552s-3.81-.271-4.254,2.013c-.405,2.081,2.155,2.892,2.155,2.892s-2.34.233-2.343,2.313c0,2.153,3.622,1.793,6.027,3.267a10.755,10.755,0,0,0,1,5.228l.081.031c-4.236,5.181-8.384,11.752-9.053,11.656-3.068-.437-14.46-11.272-22.408-18.9-9.649-9.256-8.312,1.686-6.091,7.359,5.572,14.236,18.946,33.129,24.963,33.605,2.863.227,7.935,1.25,11.914-1.795,8.68-6.644,16.446-19.933,18.365-27.708,0-.007,0-.015,0-.022C401.4,73.688,402.586,68.964,402.242,64.872Z" transform="translate(-69.897 -9.105)" fill="none" stroke="#323234" stroke-miterlimit="10" stroke-width="1"/>
          <path id="Path_1325" data-name="Path 1325" d="M400.307,61.993a18.517,18.517,0,0,0-10.743-2.552c-.095.01-.138.088-.049.1a45.656,45.656,0,0,1,10.774,2.5c.024.01.037-.026.018-.04" transform="translate(-79.205 -12.073)" fill="#263238"/>
          <path id="Path_1326" data-name="Path 1326" d="M397.727,67.458a20.792,20.792,0,0,0-10.876-1.907c-.095.014-.132.094-.044.1a48.884,48.884,0,0,1,10.9,1.85c.024.007.037-.029.015-.041" transform="translate(-78.654 -13.303)" fill="#263238"/>
          <path id="Path_1327" data-name="Path 1327" d="M362.242,77.4l-2.135,2.581-.438.534-8.492,10.277s-7.7-12.571-9.249-19.717c-.932-4.294-.263-6.827,1.609-7.289a2.453,2.453,0,0,1,.422-.064c1.211-.1,2.836.534,4.78,1.968,5.473,4.047,13.5,11.711,13.5,11.711" transform="translate(-69.452 -12.957)" fill="#fe8e14"/>
          <path id="Path_1328" data-name="Path 1328" d="M362.242,77.4l-2.135,2.581-.438.534-8.492,10.277s-7.7-12.571-9.249-19.717c-.932-4.294-.263-6.827,1.609-7.289a2.453,2.453,0,0,1,.422-.064c1.211-.1,2.836.534,4.78,1.968C354.212,69.739,362.242,77.4,362.242,77.4Z" transform="translate(-69.452 -12.957)" fill="none" stroke="#323234" stroke-miterlimit="10" stroke-width="1"/>
          <path id="Path_1329" data-name="Path 1329" d="M344.476,63.727a2.453,2.453,0,0,0-.422.064,6.415,6.415,0,0,0,.574.828,6.509,6.509,0,0,0-.151-.892m4.071,15.248a8.836,8.836,0,0,0-.653,2.39,8.967,8.967,0,0,0,1.251-2.143,8.837,8.837,0,0,0,.653-2.39,8.967,8.967,0,0,0-1.251,2.143" transform="translate(-69.969 -12.96)" fill="#fff"/>
          <path id="Path_1330" data-name="Path 1330" d="M351.565,89.349a79.947,79.947,0,0,1,9.12-11.693.067.067,0,0,1,.1.088c-.374.507-8.178,10.934-9.084,11.722-.075.065-.17-.04-.137-.117" transform="translate(-71.496 -15.788)" fill="#263238"/>
          <g id="Group_415" data-name="Group 415" transform="translate(272.054 50.753)" opacity="0.05">
            <g id="Group_414" data-name="Group 414">
              <g id="Group_413" data-name="Group 413" clip-path="url(#clip-path-7)">
                <path id="Path_1331" data-name="Path 1331" d="M356.608,84.224l-5.434,6.566s-7.7-12.565-9.251-19.716c-1.073-4.931-.028-7.549,2.527-7.354Z" transform="translate(-341.505 -63.71)"/>
              </g>
            </g>
          </g>
          <path id="Path_1332" data-name="Path 1332" d="M350.287,122.573c-1.091,1.182-47.132,6.087-47.395,5.769-.705-.86,3.53-47.392,22.393-64.438,3.324-3,9.195-2.147,11.917-.6,1.361.771,3.723,7.2,6.039,14.711,1.769,5.736,7.731,43.808,7.045,44.56" transform="translate(-61.584 -12.588)" fill="#fe8e14"/>
          <path id="Path_1333" data-name="Path 1333" d="M350.287,122.573c-1.091,1.182-47.132,6.087-47.395,5.769-.705-.86,3.53-47.392,22.393-64.438,3.324-3,9.195-2.147,11.917-.6,1.361.771,3.723,7.2,6.039,14.711C345.011,83.748,350.973,121.82,350.287,122.573Z" transform="translate(-61.584 -12.588)" fill="none" stroke="#323234" stroke-miterlimit="10" stroke-width="1"/>
          <path id="Path_1334" data-name="Path 1334" d="M336.634,62.864c-.239-.088-.486-.175-.749-.247a7.976,7.976,0,0,0,1.067,1.776,7.449,7.449,0,0,0-.319-1.53M320.311,86.309a8.888,8.888,0,0,0-1.219-2.151,8.384,8.384,0,0,0,.629,2.4,8.629,8.629,0,0,0,1.219,2.151,8.384,8.384,0,0,0-.629-2.4M306.5,106.639c-.064.287-.127.574-.183.852v.008a6.357,6.357,0,0,0,.518.725,7.479,7.479,0,0,0-.335-1.585m25.03,14.228a8.919,8.919,0,0,0-1.227-2.151,8.937,8.937,0,0,0,.629,2.4,8.662,8.662,0,0,0,1.227,2.151,8.937,8.937,0,0,0-.629-2.4M327.8,72.017a8.678,8.678,0,0,0-2.159,1.219,8.939,8.939,0,0,0,2.4-.629,8.677,8.677,0,0,0,2.159-1.219,8.384,8.384,0,0,0-2.4.629m-7.321,25.54a8.967,8.967,0,0,0-2.159,1.227,8.938,8.938,0,0,0,2.4-.629,8.707,8.707,0,0,0,2.159-1.227,8.938,8.938,0,0,0-2.4.629m-.757,15.965a8.792,8.792,0,0,0-2.382-.661,8.521,8.521,0,0,0,2.135,1.251,8.644,8.644,0,0,0,2.39.661,8.815,8.815,0,0,0-2.143-1.251" transform="translate(-62.294 -12.734)" fill="#fff"/>
          <path id="Path_1335" data-name="Path 1335" d="M326.273,77.111c2.5-9.368-1.585-13.824-7.443-6.75-11.532,13.928-21.082,31.707-19.821,36.429,1.388,5.2,13.672,23.256,22.1,30.378,1.467,1.338,8.386,9.057,11.4,10.784s7.716,4.493,10.884,2.84a5.565,5.565,0,0,0,2.483-2.988s3.515-.165,4.434-1.986a6.345,6.345,0,0,0,.489-3.706s3.437.326,4.2-1.652a5.149,5.149,0,0,0-.093-3.5,3.47,3.47,0,0,0,2.919-2.677c.492-2.664-4.1-7.951-6.838-10.085-2.4-1.873-11.6-4.495-16.241-5.736h0c-4.417-4.054-13.967-15.308-15.262-17.046" transform="translate(-60.786 -13.602)" fill="#fff"/>
          <path id="Path_1336" data-name="Path 1336" d="M326.273,77.111c2.5-9.368-1.585-13.824-7.443-6.75-11.532,13.928-21.082,31.707-19.821,36.429,1.388,5.2,13.672,23.256,22.1,30.378,1.467,1.338,8.386,9.057,11.4,10.784s7.716,4.493,10.884,2.84a5.565,5.565,0,0,0,2.483-2.988s3.515-.165,4.434-1.986a6.345,6.345,0,0,0,.489-3.706s3.437.326,4.2-1.652a5.149,5.149,0,0,0-.093-3.5,3.47,3.47,0,0,0,2.919-2.677c.492-2.664-4.1-7.951-6.838-10.085-2.4-1.873-11.6-4.495-16.241-5.736h0c-4.417-4.054-13.967-15.308-15.262-17.046" transform="translate(-60.786 -13.602)" fill="none" stroke="#323234" stroke-miterlimit="10" stroke-width="1"/>
          <path id="Path_1337" data-name="Path 1337" d="M367.064,152.483c-2.367-2.968-5.482-5.075-8.472-7.354a.065.065,0,0,0-.077.1c3,2.232,5.518,5.032,8.423,7.378a.092.092,0,0,0,.127-.129" transform="translate(-72.905 -29.512)" fill="#263238"/>
          <path id="Path_1338" data-name="Path 1338" d="M361.816,159.427a9.879,9.879,0,0,0-2.028-1.608q-1.134-.778-2.294-1.518c-1.547-.989-3.117-1.942-4.714-2.848-.071-.041-.15.058-.078.1,1.541.987,3.066,2,4.563,3.05q1.124.789,2.236,1.6a11.73,11.73,0,0,0,2.164,1.423.131.131,0,0,0,.151-.2" transform="translate(-71.722 -31.206)" fill="#263238"/>
          <path id="Path_1339" data-name="Path 1339" d="M355.652,167.031a6.88,6.88,0,0,0-1.9-1.349q-1.071-.654-2.136-1.319c-1.419-.887-2.837-1.774-4.224-2.71-.069-.047-.147.057-.077.1,1.4.958,2.8,1.935,4.208,2.881q1.041.7,2.089,1.381a6.461,6.461,0,0,0,2,1.086.046.046,0,0,0,.041-.073" transform="translate(-70.626 -32.872)" fill="#263238"/>
          <path id="Path_1340" data-name="Path 1340" d="M326.054,89.181l-17.89-3.38s7.641-13.425,13.411-18.466,9.327-3.537,8.384,3.529-3.905,18.317-3.905,18.317" transform="translate(-62.671 -13.089)" fill="#ffc727"/>
          <path id="Path_1341" data-name="Path 1341" d="M329.96,70.868c-.04.319-.088.653-.143.988-.016.151-.04.3-.064.454-1.107,7.05-3.7,16.873-3.7,16.873l-4.859-.916-.486-.1L308.164,85.8s3.242-5.7,7.09-11.057c.127-.175.255-.358.39-.534a44.019,44.019,0,0,1,5.927-6.875c5.776-5.043,9.329-3.537,8.389,3.529" transform="translate(-62.671 -13.09)" fill="#fe8e14"/>
          <path id="Path_1342" data-name="Path 1342" d="M329.96,70.868c-.04.319-.088.653-.143.988-.016.151-.04.3-.064.454-1.107,7.05-3.7,16.873-3.7,16.873l-4.859-.916-.486-.1L308.164,85.8s3.242-5.7,7.09-11.057c.127-.175.255-.358.39-.534a44.019,44.019,0,0,1,5.927-6.875C327.347,62.3,330.9,63.8,329.96,70.868Z" transform="translate(-62.671 -13.09)" fill="none" stroke="#323234" stroke-miterlimit="10" stroke-width="1"/>
          <path id="Path_1343" data-name="Path 1343" d="M312.012,86.649c1.224-.125,9.572.926,15.344,2.452a.07.07,0,0,1-.029.137c-.655-.087-14.171-1.972-15.353-2.4-.1-.036-.049-.177.038-.186" transform="translate(-63.434 -17.62)" fill="#263238"/>
          <path id="Path_1344" data-name="Path 1344" d="M333.4,81.565a.048.048,0,0,0-.09-.028,17.293,17.293,0,0,0-.748,1.772c-.053.138-.1.278-.153.416.242-1.517.46-3.036.672-4.547a.057.057,0,0,0-.113-.02c-.96,5.2-1.82,7.687-2.916,12.85l-1.577-.174a.1.1,0,0,0-.032.187l1.731.408a.2.2,0,0,0,.219-.116,30.383,30.383,0,0,0,1.839-7.5c.2-.47.413-.938.59-1.417a12.533,12.533,0,0,0,.578-1.827" transform="translate(-66.779 -16.089)" fill="#263238"/>
          <path id="Path_1345" data-name="Path 1345" d="M341.924,70.684c-2.769.914-8-2.979-10.217-6.308-.151-.229.012-9.9-.155-11.824-.036-.394,12.316,1.877,12.316,1.877a30.7,30.7,0,0,0-.524,7.475c.029.28,1.256,7.9-1.42,8.78" transform="translate(-67.427 -10.678)" fill="#fff"/>
          <path id="Path_1346" data-name="Path 1346" d="M341.924,70.684c-2.769.914-8-2.979-10.217-6.308-.151-.229.012-9.9-.155-11.824-.036-.394,12.316,1.877,12.316,1.877a30.7,30.7,0,0,0-.524,7.475C343.373,62.184,344.6,69.8,341.924,70.684Z" transform="translate(-67.427 -10.678)" fill="none" stroke="#323234" stroke-miterlimit="10" stroke-width="1"/>
          <path id="Path_1347" data-name="Path 1347" d="M343.969,54.428l-.007.01c-.01.06-.441.176-.506.562-.109.661-.319,2.022-.415,3.237a45.319,45.319,0,0,0,.108,4.639,3.19,3.19,0,0,1-.759.119c-6.575.421-9.486-7.441-10.366-10.479.068,0,.135.01.213.018.322.022.749.074,1.262.141.128.018.257.037.394.056.821.116,1.8.272,2.818.432.335.054.669.108,1.013.17.73.126,1.468.252,2.155.366.293.059.585.109.86.154.3.049.6.108.876.151.138.026.276.053.4.071.069.018.129.028.19.037.4.071.747.133,1.023.185.206.036.37.067.49.087.1.022.171.031.207.044.016,0,.025,0,.034,0Z" transform="translate(-67.523 -10.68)" fill="#e5e5e5"/>
          <path id="Path_1348" data-name="Path 1348" d="M328.51,33.011c-1.169,4.328,1.5,16.63,4.642,19.29,4.554,3.856,11.81,4,15.04-1.423,3.132-5.256-.632-21.229-4.123-23.624-5.141-3.528-13.833-.636-15.56,5.757" transform="translate(-66.751 -5.233)" fill="#fff"/>
          <path id="Path_1349" data-name="Path 1349" d="M328.51,33.011c-1.169,4.328,1.5,16.63,4.642,19.29,4.554,3.856,11.81,4,15.04-1.423,3.132-5.256-.632-21.229-4.123-23.624C338.929,23.725,330.237,26.618,328.51,33.011Z" transform="translate(-66.751 -5.233)" fill="none" stroke="#000" stroke-miterlimit="10" stroke-width="1"/>
          <path id="Path_1350" data-name="Path 1350" d="M329.359,44.518c2.2-.71,1.228-6.427,1.228-6.427s2.62-1.556,2.586-6.9c0,0,2.83,4.768,11.989,1.962a8.151,8.151,0,0,0-1.553-4.756,34.467,34.467,0,0,1,3.264,4.623s.845-8.185-6.289-9.74c-2.837-.619-6.816.323-12.384,4.432,0,0-1.825-3.449-2.442-2.842s1.349,3.78,1.349,3.78-2.831-.351-3.183.292c-.3.552,2.4.768,2.4.768a5.4,5.4,0,0,0-2.341,6.653c1.4,4.23,4.287,8.51,5.374,8.159" transform="translate(-65.815 -4.698)" fill="#323234"/>
          <path id="Path_1351" data-name="Path 1351" d="M326.854,31.143a4.931,4.931,0,0,0-4.223,4.982,9.149,9.149,0,0,0,1.29,3.946,17.169,17.169,0,0,0,2.666,3.464c.056.059.139-.038.082-.1a13.05,13.05,0,0,1-2.239-3.316,12.054,12.054,0,0,1-1.259-3.614,4.733,4.733,0,0,1,3.711-5.229c.076-.018.05-.147-.028-.136" transform="translate(-65.612 -6.333)" fill="#323234"/>
          <path id="Path_1352" data-name="Path 1352" d="M335.961,22.7a19.131,19.131,0,0,0-4.283,2.508,13.935,13.935,0,0,0-3.326,3.325.064.064,0,0,0,.1.082,25.051,25.051,0,0,1,7.374-5.153c2.5-1.224,5.626-1.78,8.02,0a.038.038,0,0,0,.049-.058c-2.2-1.928-5.375-1.743-7.931-.709" transform="translate(-66.774 -4.461)" fill="#323234"/>
          <path id="Path_1353" data-name="Path 1353" d="M331.147,46.724s-2.862-3.962-4.667-2.937.389,6.8,2.536,7.561a2.174,2.174,0,0,0,2.894-1.209Z" transform="translate(-66.26 -8.87)" fill="#fff"/>
          <path id="Path_1354" data-name="Path 1354" d="M331.147,46.724s-2.862-3.962-4.667-2.937.389,6.8,2.536,7.561a2.174,2.174,0,0,0,2.894-1.209Z" transform="translate(-66.26 -8.87)" fill="none" stroke="#323234" stroke-miterlimit="10" stroke-width="1"/>
          <path id="Path_1355" data-name="Path 1355" d="M327.483,45.887a.03.03,0,0,0-.01.057,5.487,5.487,0,0,1,2.889,3.389,1.2,1.2,0,0,0-1.8-.3c-.038.029,0,.089.042.08a1.337,1.337,0,0,1,1.477.444,6.416,6.416,0,0,1,.722,1.177c.072.133.313.057.26-.1l-.013-.034c.01-1.908-1.514-4.554-3.567-4.716" transform="translate(-66.593 -9.332)" fill="#323234"/>
          <path id="Path_1356" data-name="Path 1356" d="M344.55,43.734c-.013-.03-.058.05-.051.084.172.817.231,1.783-.464,2.188-.022.013-.012.053.015.045.885-.289.793-1.57.5-2.317" transform="translate(-69.963 -8.893)" fill="#263238"/>
          <path id="Path_1357" data-name="Path 1357" d="M343.354,42.821c-1.341.134-.974,2.806.268,2.681,1.222-.123.855-2.794-.268-2.681" transform="translate(-69.655 -8.708)" fill="#323234"/>
          <path id="Path_1358" data-name="Path 1358" d="M350.6,42.523c0-.033.07.03.073.064.088.832.327,1.769,1.114,1.941.025.006.028.047,0,.047-.931,0-1.237-1.25-1.187-2.051" transform="translate(-71.299 -8.646)" fill="#263238"/>
          <path id="Path_1359" data-name="Path 1359" d="M351.216,41.307c1.317-.284,1.788,2.372.567,2.634-1.2.26-1.671-2.4-.567-2.634" transform="translate(-71.299 -8.396)" fill="#323234"/>
          <path id="Path_1360" data-name="Path 1360" d="M341.783,41.342a10.529,10.529,0,0,0,.985-.507,1.79,1.79,0,0,0,.906-.707.571.571,0,0,0-.185-.672,1.414,1.414,0,0,0-1.432.049,2.072,2.072,0,0,0-1.064,1.053.608.608,0,0,0,.789.783" transform="translate(-69.336 -7.988)" fill="#323234"/>
          <path id="Path_1361" data-name="Path 1361" d="M351.586,39.058a10.393,10.393,0,0,1-1.1-.13,1.79,1.79,0,0,1-1.1-.346.57.57,0,0,1-.062-.693,1.413,1.413,0,0,1,1.358-.456,2.08,2.08,0,0,1,1.365.614.608.608,0,0,1-.466,1.01" transform="translate(-71.024 -7.61)" fill="#323234"/>
          <path id="Path_1362" data-name="Path 1362" d="M344.857,52.973c.225.166.46.406.763.39a2.209,2.209,0,0,0,.861-.331.029.029,0,0,1,.041.037,1.123,1.123,0,0,1-.989.593.888.888,0,0,1-.751-.642c-.02-.046.041-.072.074-.049" transform="translate(-70.117 -10.771)" fill="#263238"/>
          <path id="Path_1363" data-name="Path 1363" d="M345.536,47.3a2.842,2.842,0,0,0,2.053.995,3.56,3.56,0,0,0,1.02-.092,1.01,1.01,0,0,0,.19-.049c.06-.016.113-.03.178-.053a.208.208,0,0,0,.141-.208l0-.006a.375.375,0,0,0-.019-.084v-.006l-.012-.072c-.07-.64-.264-1.6-.264-1.6.249.084,1.509.456,1.444.125A42.783,42.783,0,0,0,348,37.869a.077.077,0,0,0-.147.041c.417,2.647,1.3,5.2,1.761,7.856a4.988,4.988,0,0,0-1.385-.221c-.087.038.409,1.849.418,2.139a.115.115,0,0,1,0,.031,3.944,3.944,0,0,1-3.041-.505c-.068-.038-.126.026-.067.085" transform="translate(-70.266 -7.691)" fill="#323234"/>
          <path id="Path_1364" data-name="Path 1364" d="M348.145,50.34a3.38,3.38,0,0,1-1.2,1.221,1.524,1.524,0,0,1-.906.182c-.685-.083-.785-.687-.734-1.223a3.63,3.63,0,0,1,.187-.835,4.364,4.364,0,0,0,2.649.654" transform="translate(-70.222 -10.105)" fill="#263238"/>
          <path id="Path_1365" data-name="Path 1365" d="M346.949,51.774a1.524,1.524,0,0,1-.906.182c-.684-.083-.785-.687-.734-1.223a1.568,1.568,0,0,1,1.64,1.04" transform="translate(-70.222 -10.317)" fill="#9e9e9e"/>
          <path id="Path_1366" data-name="Path 1366" d="M32.351,287.835c5.956-2.416,15.184,6.47,20.61,19.848s5,26.181-.958,28.6-15.184-6.47-20.61-19.848-5-26.181.958-28.6" transform="translate(-5.61 -58.456)" fill="#89c2b9"/>
          <path id="Path_1367" data-name="Path 1367" d="M32.351,287.835c5.956-2.416,15.184,6.47,20.61,19.848s5,26.181-.958,28.6-15.184-6.47-20.61-19.848S26.394,290.251,32.351,287.835Z" transform="translate(-5.61 -58.456)" fill="none" stroke="#353537" stroke-miterlimit="10" stroke-width="1"/>
          <path id="Path_1368" data-name="Path 1368" d="M72.651,314.949c4.025-5.464,10.077-7.839,13.517-5.3s2.967,9.018-1.058,14.482-10.077,7.839-13.517,5.3-2.967-9.018,1.058-14.482" transform="translate(-14.092 -62.765)" fill="#89c2b9"/>
          <path id="Path_1369" data-name="Path 1369" d="M72.651,314.949c4.025-5.464,10.077-7.839,13.517-5.3s2.967,9.018-1.058,14.482-10.077,7.839-13.517,5.3S68.626,320.413,72.651,314.949Z" transform="translate(-14.092 -62.765)" fill="none" stroke="#353537" stroke-miterlimit="9.998" stroke-width="1"/>
          <path id="Path_1370" data-name="Path 1370" d="M29.25,348.032a9.731,9.731,0,1,1-9.854,9.73,9.792,9.792,0,0,1,9.854-9.73" transform="translate(-3.945 -70.778)" fill="#89c2b9"/>
          <ellipse id="Ellipse_67" data-name="Ellipse 67" cx="9.854" cy="9.73" rx="9.854" ry="9.73" transform="translate(15.452 277.254)" fill="none" stroke="#353537" stroke-miterlimit="10" stroke-width="1"/>
          <path id="Path_1371" data-name="Path 1371" d="M39.1,315.668c2.1,7.574,9.826,12.327,13.176,19.451A33.732,33.732,0,0,1,54.73,344.5,187.251,187.251,0,0,1,56.816,368.9" transform="translate(-7.951 -64.197)" fill="none" stroke="#353537" stroke-miterlimit="10" stroke-width="1"/>
          <path id="Path_1372" data-name="Path 1372" d="M80,364.482a3.135,3.135,0,1,1-3.175,3.135A3.155,3.155,0,0,1,80,364.482" transform="translate(-15.623 -74.124)" fill="#353537"/>
          <ellipse id="Ellipse_68" data-name="Ellipse 68" cx="2.811" cy="2.775" rx="2.811" ry="2.775" transform="translate(6.396 260.499)" fill="none" stroke="#353537" stroke-miterlimit="10" stroke-width="1"/>
          <path id="Path_1373" data-name="Path 1373" d="M76.29,323.785c-4.979,3.7-7.355,9.854-9,15.79s-2.868,12.169-6.4,17.24" transform="translate(-12.383 -65.847)" fill="none" stroke="#353537" stroke-miterlimit="10" stroke-width="1"/>
          <path id="Path_1374" data-name="Path 1374" d="M31.774,360.562c-1.307,1.584-1.162,3.915-.478,5.842s1.827,3.688,2.364,5.661.3,4.372-1.327,5.631" transform="translate(-6.26 -73.327)" fill="none" stroke="#353537" stroke-miterlimit="10" stroke-width="1"/>
        </g>
      </g>
    </g>
    <g id="Group_495" data-name="Group 495" transform="matrix(0.974, -0.225, 0.225, 0.974, 12.003, 133.892)">
      <g id="Group_422" data-name="Group 422" transform="translate(0.683 0.683)">
        <path id="Rectangle_2684" data-name="Rectangle 2684" d="M4.226,0h30.2a4.225,4.225,0,0,1,4.225,4.225v30.2a4.226,4.226,0,0,1-4.226,4.226H4.226A4.226,4.226,0,0,1,0,34.423V4.226A4.226,4.226,0,0,1,4.226,0Z" fill="#f5f5f5" stroke="#999" stroke-linecap="round" stroke-linejoin="round" stroke-width="1"/>
        <path id="Path_1375" data-name="Path 1375" d="M13.754,8.951a2.691,2.691,0,1,1-2.69,2.69,2.689,2.689,0,0,1,2.69-2.69" transform="translate(1.014 0.711)" fill="#f5f5f5" stroke="#999" stroke-linecap="round" stroke-linejoin="round" stroke-width="1"/>
        <path id="Path_1376" data-name="Path 1376" d="M38.542,29.563l-7.7-11.551a2.416,2.416,0,0,0-3.991-.043l-6.425,9.178-3.981-3.183a2.414,2.414,0,0,0-3.521.545l-8.2,12.3" transform="translate(0.105 1.856)" fill="#f5f5f5" stroke="#999" stroke-linecap="round" stroke-linejoin="round" stroke-width="1"/>
      </g>
    </g>
    <g id="Group_496" data-name="Group 496" transform="translate(30.511 31.516) rotate(16)">
      <g id="Group_425" data-name="Group 425" transform="translate(1.601 1.602)">
        <path id="Path_1377" data-name="Path 1377" d="M44.628,10.329a2.338,2.338,0,0,1,.684,1.649v40.33a2.333,2.333,0,0,1-2.333,2.332H3.332A2.332,2.332,0,0,1,1,52.308V3.333A2.332,2.332,0,0,1,3.332,1h31a2.332,2.332,0,0,1,1.649.683Z" transform="translate(-1 -1.001)" fill="#f5f5f5"/>
        <path id="Path_1378" data-name="Path 1378" d="M44.628,10.329a2.338,2.338,0,0,1,.684,1.649v40.33a2.333,2.333,0,0,1-2.333,2.332H3.332A2.332,2.332,0,0,1,1,52.308V3.333A2.332,2.332,0,0,1,3.332,1h31a2.332,2.332,0,0,1,1.649.683Z" transform="translate(-1 -1.001)" fill="none" stroke="#999" stroke-linecap="round" stroke-linejoin="round" stroke-width="1"/>
        <line id="Line_58" data-name="Line 58" x2="27.986" transform="translate(8.163 22.154)" fill="#f5f5f5"/>
        <line id="Line_59" data-name="Line 59" x2="27.986" transform="translate(8.163 22.154)" fill="none" stroke="#999" stroke-linecap="round" stroke-linejoin="round" stroke-width="1"/>
        <line id="Line_60" data-name="Line 60" x2="16.325" transform="translate(8.163 15.158)" fill="#f5f5f5"/>
        <line id="Line_61" data-name="Line 61" x2="16.325" transform="translate(8.163 15.158)" fill="none" stroke="#999" stroke-linecap="round" stroke-linejoin="round" stroke-width="1"/>
        <line id="Line_67" data-name="Line 67" x2="27.986" transform="translate(8.163 29.151)" fill="none" stroke="#999" stroke-linecap="round" stroke-linejoin="round" stroke-width="1"/>
        <line id="Line_69" data-name="Line 69" x2="27.986" transform="translate(8.163 36.147)" fill="none" stroke="#999" stroke-linecap="round" stroke-linejoin="round" stroke-width="1"/>
        <line id="Line_71" data-name="Line 71" x2="27.986" transform="translate(8.163 43.144)" fill="none" stroke="#999" stroke-linecap="round" stroke-linejoin="round" stroke-width="1"/>
      </g>
    </g>
    <g id="Group_497" data-name="Group 497" transform="matrix(0.819, -0.574, 0.574, 0.819, -10.611, 24.962)">
      <g id="Group_426" data-name="Group 426" transform="translate(0 0)" clip-path="url(#clip-path-8)">
        <path id="Path_1379" data-name="Path 1379" d="M19.926,8.161a.838.838,0,0,1,.045.639L15.392,22.542a.837.837,0,0,1-1.059.53L.823,18.57a.838.838,0,0,1-.53-1.059L5.855.823A.839.839,0,0,1,6.914.293L17.477,3.814a.836.836,0,0,1,.485.42Z" transform="translate(0.032 0.032)" fill="#ddd"/>
        <path id="Path_1380" data-name="Path 1380" d="M19.926,8.161a.838.838,0,0,1,.045.639L15.392,22.542a.837.837,0,0,1-1.059.53L.823,18.57a.838.838,0,0,1-.53-1.059L5.855.823A.839.839,0,0,1,6.914.293L17.477,3.814a.836.836,0,0,1,.485.42Z" transform="translate(0.032 0.032)" fill="none" stroke="#999" stroke-linecap="round" stroke-linejoin="round" stroke-width="0.5"/>
      </g>
    </g>
    <g id="Group_498" data-name="Group 498" transform="matrix(0.998, -0.07, 0.07, 0.998, 46.897, 0.891)">
      <g id="Group_426-2" data-name="Group 426" transform="translate(0 0)" clip-path="url(#clip-path-9)">
        <path id="Path_1379-2" data-name="Path 1379" d="M12.612,5.22a.527.527,0,0,1,.028.4L9.763,14.255a.526.526,0,0,1-.666.333L.61,11.759a.527.527,0,0,1-.333-.666L3.771.61A.527.527,0,0,1,4.437.277l6.636,2.212a.525.525,0,0,1,.3.264Z" transform="translate(-0.073 -0.073)" fill="#ddd"/>
        <path id="Path_1380-2" data-name="Path 1380" d="M12.612,5.22a.527.527,0,0,1,.028.4L9.763,14.255a.526.526,0,0,1-.666.333L.61,11.759a.527.527,0,0,1-.333-.666L3.771.61A.527.527,0,0,1,4.437.277l6.636,2.212a.525.525,0,0,1,.3.264Z" transform="translate(-0.073 -0.073)" fill="none" stroke="#999" stroke-linecap="round" stroke-linejoin="round" stroke-width="0.5"/>
      </g>
    </g>
  </g>
</svg>
