<svg id="illustration-man-capture" xmlns="http://www.w3.org/2000/svg" xmlns:xlink="http://www.w3.org/1999/xlink" width="288.928" height="253.5" viewBox="0 0 288.928 253.5">
  <defs>
    <clipPath id="clip-path">
      <rect id="Rectangle_3394" data-name="Rectangle 3394" width="288.928" height="253.5" fill="none"/>
    </clipPath>
    <clipPath id="clip-path-2">
      <rect id="Rectangle_3303" data-name="Rectangle 3303" width="280.143" height="253.157" transform="translate(8.785 0.17)" fill="none"/>
    </clipPath>
    <clipPath id="clip-path-4">
      <rect id="Rectangle_3304" data-name="Rectangle 3304" width="110" height="17" transform="translate(94 23.17)" fill="none"/>
    </clipPath>
    <clipPath id="clip-path-5">
      <rect id="Rectangle_3306" data-name="Rectangle 3306" width="74.513" height="8" transform="translate(111.785 28.092)" fill="none"/>
    </clipPath>
    <clipPath id="clip-path-6">
      <rect id="Rectangle_3308" data-name="Rectangle 3308" width="6.999" height="7.006" transform="translate(192.416 28.169)" fill="none"/>
    </clipPath>
    <clipPath id="clip-path-9">
      <rect id="Rectangle_3311" data-name="Rectangle 3311" width="7.253" height="23.021" transform="translate(234.441 225.105)" fill="none"/>
    </clipPath>
    <clipPath id="clip-path-11">
      <rect id="Rectangle_3313" data-name="Rectangle 3313" width="12.505" height="22.419" transform="translate(234.014 42.188)" fill="none"/>
    </clipPath>
    <clipPath id="clip-path-12">
      <rect id="Rectangle_3312" data-name="Rectangle 3312" width="12.504" height="22.419" transform="translate(234.015 42.188)" fill="none"/>
    </clipPath>
    <clipPath id="clip-path-14">
      <rect id="Rectangle_3316" data-name="Rectangle 3316" width="16.831" height="19.401" transform="matrix(0.819, -0.574, 0.574, 0.819, 0, 20.836)" fill="none"/>
    </clipPath>
    <clipPath id="clip-path-15">
      <rect id="Rectangle_3317" data-name="Rectangle 3317" width="10.579" height="12.192" transform="matrix(0.998, -0.07, 0.07, 0.998, 47.61, 0.908)" fill="none"/>
    </clipPath>
  </defs>
  <g id="Group_3511" data-name="Group 3511" clip-path="url(#clip-path)">
    <rect id="Rectangle_3299" data-name="Rectangle 3299" width="108.454" height="180.855" transform="translate(94.259 56.251)" fill="#efefef"/>
    <path id="Path_8722" data-name="Path 8722" d="M94.845,231.652l3.824,5.245,3.824-5.245,3.824,5.245,3.825-5.245,3.824,5.245,3.824-5.245,3.824,5.245,3.824-5.245,3.824,5.245,3.825-5.245,3.824,5.245,3.824-5.245,3.824,5.245,3.824-5.245,3.824,5.245,3.824-5.245,3.825,5.245,3.824-5.245L167.5,236.9l3.824-5.245,3.824,5.245,3.824-5.245L182.8,236.9l3.824-5.245,3.824,5.245,3.824-5.245L198.1,236.9l3.7-5.093.063-174.657H94.465Z" fill="#fff"/>
    <rect id="Rectangle_3300" data-name="Rectangle 3300" width="108.454" height="180.855" transform="translate(94.471 56.251)" fill="none" stroke="#fe8e14" stroke-miterlimit="10" stroke-width="1"/>
    <g id="Group_3478" data-name="Group 3478">
      <g id="Group_3477" data-name="Group 3477" clip-path="url(#clip-path-2)">
        <path id="Path_8723" data-name="Path 8723" d="M8.785,252.621c89.738-.4,190.4-.407,280.143,0-89.739.407-190.4.4-280.143,0" fill="#263238"/>
        <path id="Path_8724" data-name="Path 8724" d="M204.6.5H93.1A11.383,11.383,0,0,0,81.821,11.987V241.509A11.391,11.391,0,0,0,93.1,253H204.6a11.4,11.4,0,0,0,11.291-11.489V11.989A11.394,11.394,0,0,0,204.6.5Zm4.234,233.912c0,6.041-4.524,10.928-10.1,10.928H98.979c-5.593,0-10.117-4.887-10.117-10.928V20.688c0-12.307,4.524-12.907,10.117-12.907h19.983c1.161,0,2.11,1.319,2.11,2.955v.706c0,3.832,2.1,3.845,4.669,3.845h46.206c2.6,0,4.683-.013,4.683-3.845v-.706c0-1.636.937-2.955,2.117-2.955h19.977c5.58,0,10.1,1.636,10.1,12.907Z" fill="none" stroke="#323234" stroke-miterlimit="10" stroke-width="1"/>
        <path id="Path_8725" data-name="Path 8725" d="M208.834,20.688V44.756H88.867V20.688c0-12.307,4.524-12.907,10.117-12.907h19.983c1.161,0,2.11,1.319,2.11,2.955v.7c0,3.832,2.1,3.845,4.669,3.845h46.207c2.6,0,4.683-.013,4.683-3.845v-.706c0-1.636.937-2.955,2.117-2.955H198.73c5.58,0,10.1,1.636,10.1,12.907" fill="#fe8e14"/>
        <path id="Path_8726" data-name="Path 8726" d="M115.517,12.581l-.193.192-.109.109a2.627,2.627,0,0,0-3.715-.007l-.007.007-.1-.109-.191-.191H111.2l.015-.012c.081-.072.16-.147.244-.216a2.993,2.993,0,0,1,1.313-.611c.123-.023.249-.034.373-.05.043,0,.319-.006.328-.005.084.007.17.01.255.019a2.892,2.892,0,0,1,.687.164,3.016,3.016,0,0,1,.464.217,2.964,2.964,0,0,1,.443.311c.069.059.136.122.2.183Z" fill="#fff"/>
        <path id="Path_8727" data-name="Path 8727" d="M112.1,13.489l-.305-.3a2.153,2.153,0,0,1,1.241-.623,2.175,2.175,0,0,1,1.867.619l-.306.3a1.767,1.767,0,0,0-2.5,0h0" fill="#fff"/>
        <path id="Path_8728" data-name="Path 8728" d="M114.3,13.794l-.3.3a.9.9,0,0,0-1.273-.006l-.006.006-.3-.3a1.325,1.325,0,0,1,1.874-.012l.012.012" fill="#fff"/>
        <path id="Path_8729" data-name="Path 8729" d="M113.628,14.372a.274.274,0,1,1-.274-.274.274.274,0,0,1,.274.274" fill="#fff"/>
        <path id="Path_8730" data-name="Path 8730" d="M96.692,13.165a.8.8,0,1,1,0,.01v-.01" fill="#fff"/>
        <path id="Path_8731" data-name="Path 8731" d="M99.2,13.165a.8.8,0,1,1,.8.8h-.005a.8.8,0,0,1-.795-.8v-.005" fill="#fff"/>
        <path id="Path_8732" data-name="Path 8732" d="M101.7,13.165a.8.8,0,1,1,0,.01v-.01" fill="#fff"/>
        <path id="Path_8733" data-name="Path 8733" d="M104.2,13.165a.8.8,0,1,1,.8.8h0a.8.8,0,0,1-.795-.8v-.005" fill="#fff"/>
        <path id="Path_8734" data-name="Path 8734" d="M106.709,13.165a.8.8,0,1,1,.8.8H107.5a.8.8,0,0,1-.795-.8v-.005" fill="#fff"/>
        <path id="Path_8735" data-name="Path 8735" d="M199.837,14.9h-6.473v-3h6.473Zm-6.143-.33h5.813V12.232H193.7Z" fill="#fff"/>
        <rect id="Rectangle_3301" data-name="Rectangle 3301" width="4.172" height="1.98" transform="translate(193.901 12.411)" fill="#fff"/>
        <rect id="Rectangle_3302" data-name="Rectangle 3302" width="0.576" height="1.604" transform="translate(199.84 12.599)" fill="#fff"/>
      </g>
    </g>
    <g id="Group_3486" data-name="Group 3486">
      <g id="Group_3485" data-name="Group 3485" clip-path="url(#clip-path-2)">
        <g id="Group_3481" data-name="Group 3481" opacity="0.07" style="isolation: isolate">
          <g id="Group_3480" data-name="Group 3480">
            <g id="Group_3479" data-name="Group 3479" clip-path="url(#clip-path-4)">
              <path id="Path_8736" data-name="Path 8736" d="M97,23.17H201a3,3,0,0,1,3,3v11a3,3,0,0,1-3,3H97a3,3,0,0,1-3-3v-11a3,3,0,0,1,3-3"/>
            </g>
          </g>
        </g>
        <line id="Line_385" data-name="Line 385" x2="6.513" transform="translate(99.991 31.4)" fill="none" stroke="#fff" stroke-width="1"/>
        <path id="Path_8737" data-name="Path 8737" d="M102.243,34.63,98.795,31.4l3.448-3.23.535.57-2.84,2.66,2.839,2.661Z" fill="#fff"/>
        <g id="Group_3484" data-name="Group 3484" style="isolation: isolate">
          <g id="Group_3483" data-name="Group 3483">
            <g id="Group_3482" data-name="Group 3482" clip-path="url(#clip-path-5)">
              <path id="Path_8738" data-name="Path 8738" d="M114.313,34.17l-1.937-5.062h-.032q.055.6.055,1.429V34.17h-.613V28.459h1l1.808,4.711h.031l1.825-4.711h.992V34.17h-.664V30.49q0-.633.055-1.375H116.8l-1.953,5.055Z" fill="#fff"/>
              <path id="Path_8739" data-name="Path 8739" d="M122.654,32.026a2.361,2.361,0,0,1-.528,1.635,1.859,1.859,0,0,1-1.457.588,1.928,1.928,0,0,1-1.019-.27,1.783,1.783,0,0,1-.688-.773,2.705,2.705,0,0,1-.242-1.18,2.355,2.355,0,0,1,.524-1.631,1.848,1.848,0,0,1,1.453-.584,1.808,1.808,0,0,1,1.427.6,2.349,2.349,0,0,1,.53,1.617m-3.262,0a2.029,2.029,0,0,0,.328,1.25,1.3,1.3,0,0,0,1.932,0,2.021,2.021,0,0,0,.33-1.252,1.988,1.988,0,0,0-.33-1.24,1.162,1.162,0,0,0-.975-.424,1.145,1.145,0,0,0-.961.418,2.011,2.011,0,0,0-.324,1.246" fill="#fff"/>
              <path id="Path_8740" data-name="Path 8740" d="M125.783,29.819a1.591,1.591,0,0,1,1.31.576,3.084,3.084,0,0,1,0,3.27,1.585,1.585,0,0,1-1.306.584,1.853,1.853,0,0,1-.764-.155,1.425,1.425,0,0,1-.58-.474h-.047l-.137.551h-.464V28.092h.648v1.477q0,.5-.031.891h.031a1.54,1.54,0,0,1,1.344-.641m-.094.543a1.131,1.131,0,0,0-.957.381,2.149,2.149,0,0,0-.293,1.283,2.138,2.138,0,0,0,.3,1.291,1.144,1.144,0,0,0,.965.389,1,1,0,0,0,.89-.436,2.233,2.233,0,0,0,.293-1.252,2.147,2.147,0,0,0-.293-1.246,1.038,1.038,0,0,0-.906-.41" fill="#fff"/>
              <path id="Path_8741" data-name="Path 8741" d="M128.638,28.729a.429.429,0,0,1,.109-.326.4.4,0,0,1,.543,0,.42.42,0,0,1,.113.324.428.428,0,0,1-.113.326.4.4,0,0,1-.543,0,.438.438,0,0,1-.109-.326m.7,5.441h-.648V29.889h.648Z" fill="#fff"/>
              <rect id="Rectangle_3305" data-name="Rectangle 3305" width="0.648" height="6.078" transform="translate(130.716 28.092)" fill="#fff"/>
              <path id="Path_8742" data-name="Path 8742" d="M134.548,34.249a1.964,1.964,0,0,1-1.5-.579,2.236,2.236,0,0,1-.549-1.6,2.484,2.484,0,0,1,.51-1.645,1.694,1.694,0,0,1,1.369-.609,1.616,1.616,0,0,1,1.273.529,2.028,2.028,0,0,1,.469,1.4v.41h-2.949a1.7,1.7,0,0,0,.381,1.145,1.317,1.317,0,0,0,1.017.39,3.458,3.458,0,0,0,1.367-.289v.578a3.412,3.412,0,0,1-.65.213,3.651,3.651,0,0,1-.74.065m-.176-3.9a1.057,1.057,0,0,0-.822.336,1.549,1.549,0,0,0-.362.93h2.239a1.428,1.428,0,0,0-.274-.94.96.96,0,0,0-.781-.326" fill="#fff"/>
              <path id="Path_8743" data-name="Path 8743" d="M144.108,34.17h-.656L142.3,30.346q-.081-.254-.183-.641a3.824,3.824,0,0,1-.106-.465,8.67,8.67,0,0,1-.273,1.129l-1.117,3.8h-.657l-1.519-5.711h.7l.9,3.527a13.123,13.123,0,0,1,.274,1.344,9.821,9.821,0,0,1,.312-1.4l1.024-3.473h.7l1.074,3.5a10.621,10.621,0,0,1,.317,1.367,11.581,11.581,0,0,1,.281-1.351l.9-3.52h.7Z" fill="#fff"/>
              <path id="Path_8744" data-name="Path 8744" d="M147.985,34.249a1.965,1.965,0,0,1-1.5-.579,2.24,2.24,0,0,1-.549-1.6,2.484,2.484,0,0,1,.51-1.645,1.7,1.7,0,0,1,1.369-.609,1.615,1.615,0,0,1,1.273.529,2.028,2.028,0,0,1,.469,1.4v.41H146.61a1.7,1.7,0,0,0,.381,1.145,1.318,1.318,0,0,0,1.017.39,3.458,3.458,0,0,0,1.367-.289v.578a3.389,3.389,0,0,1-.65.213,3.644,3.644,0,0,1-.74.065m-.176-3.9a1.059,1.059,0,0,0-.822.336,1.562,1.562,0,0,0-.362.93h2.239a1.422,1.422,0,0,0-.274-.94.958.958,0,0,0-.781-.326" fill="#fff"/>
              <path id="Path_8745" data-name="Path 8745" d="M152.657,29.819a1.59,1.59,0,0,1,1.31.576,3.084,3.084,0,0,1,0,3.27,1.584,1.584,0,0,1-1.306.584,1.853,1.853,0,0,1-.764-.155,1.425,1.425,0,0,1-.58-.474h-.047l-.137.551h-.464V28.092h.648v1.477q0,.5-.031.891h.031a1.541,1.541,0,0,1,1.344-.641m-.094.543a1.132,1.132,0,0,0-.957.381,2.149,2.149,0,0,0-.293,1.283,2.145,2.145,0,0,0,.3,1.291,1.145,1.145,0,0,0,.965.389,1,1,0,0,0,.89-.436,2.233,2.233,0,0,0,.293-1.252,2.147,2.147,0,0,0-.293-1.246,1.038,1.038,0,0,0-.906-.41" fill="#fff"/>
              <path id="Path_8746" data-name="Path 8746" d="M160.188,28.971a1.867,1.867,0,0,0-1.486.627,2.525,2.525,0,0,0-.545,1.717,2.584,2.584,0,0,0,.525,1.732,1.871,1.871,0,0,0,1.5.611,5.106,5.106,0,0,0,1.363-.214v.582a4.2,4.2,0,0,1-1.464.222,2.481,2.481,0,0,1-1.948-.765,3.155,3.155,0,0,1-.685-2.176,3.432,3.432,0,0,1,.33-1.547,2.377,2.377,0,0,1,.953-1.023,2.882,2.882,0,0,1,1.467-.36,3.545,3.545,0,0,1,1.57.328l-.281.571a3.026,3.026,0,0,0-1.3-.3" fill="#fff"/>
              <path id="Path_8747" data-name="Path 8747" d="M165.277,34.17l-.129-.609h-.031a1.81,1.81,0,0,1-.639.545,1.97,1.97,0,0,1-.795.142,1.426,1.426,0,0,1-1-.328,1.2,1.2,0,0,1-.361-.934q0-1.3,2.074-1.359l.726-.023v-.266a1.087,1.087,0,0,0-.216-.744.894.894,0,0,0-.694-.24,2.822,2.822,0,0,0-1.211.328l-.2-.5a3.064,3.064,0,0,1,.694-.27,3,3,0,0,1,.755-.1,1.635,1.635,0,0,1,1.135.34,1.42,1.42,0,0,1,.369,1.09V34.17Zm-1.465-.457a1.313,1.313,0,0,0,.951-.332,1.227,1.227,0,0,0,.346-.93v-.386l-.649.027a2.369,2.369,0,0,0-1.115.24.724.724,0,0,0-.342.662.666.666,0,0,0,.213.535.885.885,0,0,0,.6.184" fill="#fff"/>
              <path id="Path_8748" data-name="Path 8748" d="M169.085,34.249a1.85,1.85,0,0,1-.764-.155,1.425,1.425,0,0,1-.58-.474h-.047a5.792,5.792,0,0,1,.047.711v1.761h-.648v-6.2h.527l.09.586h.031a1.507,1.507,0,0,1,.582-.508,1.77,1.77,0,0,1,.762-.156,1.584,1.584,0,0,1,1.314.582,3.1,3.1,0,0,1-.008,3.272,1.587,1.587,0,0,1-1.306.584m-.094-3.887a1.149,1.149,0,0,0-.949.363,1.865,1.865,0,0,0-.3,1.157v.144a2.138,2.138,0,0,0,.3,1.291,1.142,1.142,0,0,0,.965.389,1,1,0,0,0,.869-.449,2.137,2.137,0,0,0,.314-1.239,2.052,2.052,0,0,0-.314-1.228,1.036,1.036,0,0,0-.885-.428" fill="#fff"/>
              <path id="Path_8749" data-name="Path 8749" d="M173.378,33.713a2.271,2.271,0,0,0,.586-.078v.5a1.212,1.212,0,0,1-.311.084,2.331,2.331,0,0,1-.369.033q-1.242,0-1.242-1.308V30.393h-.613V30.08l.613-.269.274-.914h.375v.992h1.242v.5h-1.242v2.519a.864.864,0,0,0,.183.594.638.638,0,0,0,.5.207" fill="#fff"/>
              <path id="Path_8750" data-name="Path 8750" d="M175.429,29.889v2.777a1.119,1.119,0,0,0,.238.782.973.973,0,0,0,.746.257,1.218,1.218,0,0,0,.983-.367,1.852,1.852,0,0,0,.31-1.2v-2.25h.649V34.17h-.535l-.094-.574h-.035a1.3,1.3,0,0,1-.553.484,1.846,1.846,0,0,1-.807.168,1.638,1.638,0,0,1-1.17-.371,1.579,1.579,0,0,1-.388-1.187v-2.8Z" fill="#fff"/>
              <path id="Path_8751" data-name="Path 8751" d="M181.683,29.811a2.573,2.573,0,0,1,.512.047l-.09.6a2.221,2.221,0,0,0-.469-.058,1.14,1.14,0,0,0-.889.422,1.539,1.539,0,0,0-.369,1.051v2.3h-.648V29.889h.535l.074.793h.032a1.866,1.866,0,0,1,.574-.644,1.281,1.281,0,0,1,.738-.227" fill="#fff"/>
              <path id="Path_8752" data-name="Path 8752" d="M184.724,34.249a1.965,1.965,0,0,1-1.5-.579,2.24,2.24,0,0,1-.549-1.6,2.484,2.484,0,0,1,.51-1.645,1.7,1.7,0,0,1,1.369-.609,1.615,1.615,0,0,1,1.273.529,2.028,2.028,0,0,1,.469,1.4v.41h-2.949a1.7,1.7,0,0,0,.381,1.145,1.318,1.318,0,0,0,1.017.39,3.458,3.458,0,0,0,1.367-.289v.578a3.389,3.389,0,0,1-.65.213,3.644,3.644,0,0,1-.74.065m-.176-3.9a1.059,1.059,0,0,0-.822.336,1.562,1.562,0,0,0-.362.93H185.6a1.422,1.422,0,0,0-.274-.94.958.958,0,0,0-.781-.326" fill="#fff"/>
            </g>
          </g>
        </g>
      </g>
    </g>
    <g id="Group_3488" data-name="Group 3488">
      <g id="Group_3487" data-name="Group 3487" clip-path="url(#clip-path-6)">
        <circle id="Ellipse_298" data-name="Ellipse 298" cx="2.569" cy="2.569" r="2.569" transform="translate(192.538 33.363) rotate(-80.783)" fill="none" stroke="#fff" stroke-linecap="round" stroke-linejoin="round" stroke-width="1"/>
        <line id="Line_386" data-name="Line 386" x2="1.615" y2="1.615" transform="translate(197.301 33.06)" fill="none" stroke="#fff" stroke-linecap="round" stroke-linejoin="round" stroke-width="1"/>
      </g>
    </g>
    <g id="Group_3490" data-name="Group 3490">
      <g id="Group_3489" data-name="Group 3489" clip-path="url(#clip-path-2)">
        <path id="Path_8753" data-name="Path 8753" d="M208.834,20.688V234.412c0,6.041-4.524,10.928-10.1,10.928H98.984c-5.593,0-10.117-4.887-10.117-10.928V20.688c0-12.307,4.524-12.907,10.117-12.907h19.983c1.161,0,2.11,1.319,2.11,2.955v.7c0,3.832,2.1,3.845,4.669,3.845h46.207c2.6,0,4.683-.013,4.683-3.845v-.706c0-1.636.937-2.955,2.117-2.955H198.73C204.31,7.781,208.834,9.417,208.834,20.688Z" fill="none" stroke="#606060" stroke-miterlimit="10" stroke-width="1"/>
        <path id="Path_8754" data-name="Path 8754" d="M155.155,10.5h-12.6a.779.779,0,0,1-.056-1.557h12.656a.779.779,0,0,1,0,1.557" fill="#fff"/>
        <path id="Path_8755" data-name="Path 8755" d="M96.9,55.592a1.979,1.979,0,1,1-1.979-1.979A1.979,1.979,0,0,1,96.9,55.592Z" fill="#fff"/>
        <circle id="Ellipse_299" data-name="Ellipse 299" cx="1.979" cy="1.979" r="1.979" transform="translate(92.944 53.613)" fill="none" stroke="#fe8e14" stroke-miterlimit="10" stroke-width="1"/>
        <path id="Path_8756" data-name="Path 8756" d="M204.256,56.1a1.979,1.979,0,1,1-1.979-1.979,1.979,1.979,0,0,1,1.979,1.979Z" fill="#fff"/>
        <circle id="Ellipse_300" data-name="Ellipse 300" cx="1.979" cy="1.979" r="1.979" transform="translate(200.008 57.741) rotate(-80.783)" fill="none" stroke="#fe8e14" stroke-miterlimit="10" stroke-width="1"/>
        <path id="Path_8757" data-name="Path 8757" d="M97.524,237.07a1.979,1.979,0,1,1-1.979-1.979,1.979,1.979,0,0,1,1.979,1.979Z" fill="#fff"/>
        <circle id="Ellipse_301" data-name="Ellipse 301" cx="1.979" cy="1.979" r="1.979" transform="translate(93.567 235.091)" fill="none" stroke="#fe8e14" stroke-miterlimit="10" stroke-width="1"/>
        <path id="Path_8758" data-name="Path 8758" d="M205.172,237a1.979,1.979,0,1,1-1.979-1.979A1.979,1.979,0,0,1,205.172,237Z" fill="#fff"/>
        <circle id="Ellipse_302" data-name="Ellipse 302" cx="1.979" cy="1.979" r="1.979" transform="translate(200.813 238.467) rotate(-76.717)" fill="none" stroke="#fe8e14" stroke-miterlimit="10" stroke-width="1"/>
        <path id="Path_8759" data-name="Path 8759" d="M231.659,185.463s-17.622,21.008-17.635,21.022c-3.391,4-6.292,7.567-7.621,9.553a.082.082,0,0,0-.02.032,3.65,3.65,0,0,0-.752,1.486.17.17,0,0,0,0,.045c.507,1.816,31.68,29.847,33.1,30.458s3.271-3.376,2.929-5.429-7.482-18.128-7.482-18.128l17.415-21.166Z" fill="#d3766a"/>
        <path id="Path_8760" data-name="Path 8760" d="M217.642,202.173l-3.618,4.313c-3.391,4-6.292,7.567-7.621,9.552a.089.089,0,0,0-.021.033,7.121,7.121,0,0,0-.752,1.485.177.177,0,0,0,0,.046c.507,1.816,31.681,29.847,33.1,30.458s3.271-3.377,2.929-5.43-7.482-18.128-7.482-18.128l3.732-4.326Z" fill="#ebebeb"/>
        <path id="Path_8761" data-name="Path 8761" d="M238.727,248.06c-1.419-.612-32.59-28.64-33.1-30.461-.2-.689,3.615-5.469,8.4-11.112l.151-.175L234.49,224.17l-.315.334s7.133,16.065,7.481,18.127-1.513,6.046-2.928,5.429" fill="#fff"/>
        <path id="Path_8762" data-name="Path 8762" d="M238.727,248.06c-1.419-.612-32.59-28.64-33.1-30.461-.2-.689,3.615-5.469,8.4-11.112l.151-.175L234.49,224.17l-.315.334s7.133,16.065,7.481,18.127S240.142,248.678,238.727,248.06Z" fill="none" stroke="#323234" stroke-miterlimit="10" stroke-width="1"/>
        <path id="Path_8763" data-name="Path 8763" d="M234.441,224.13v.094l.051-.05Z" fill="#020100"/>
      </g>
    </g>
    <g id="Group_3502" data-name="Group 3502">
      <g id="Group_3501" data-name="Group 3501" clip-path="url(#clip-path-2)">
        <g id="Group_3495" data-name="Group 3495" opacity="0.1">
          <g id="Group_3494" data-name="Group 3494">
            <g id="Group_3493" data-name="Group 3493" clip-path="url(#clip-path-9)">
              <g id="Group_3492" data-name="Group 3492">
                <g id="Group_3491" data-name="Group 3491" clip-path="url(#clip-path-9)">
                  <path id="Path_8764" data-name="Path 8764" d="M241.653,242.628c-.3-1.821-5.919-14.589-7.212-17.523v19.424a52.111,52.111,0,0,0,4.285,3.533c1.417.615,3.267-3.381,2.927-5.434" fill="#020100"/>
                </g>
              </g>
            </g>
          </g>
        </g>
        <path id="Path_8765" data-name="Path 8765" d="M239.462,246.53c-5.138-4.854-26.321-23.947-31.77-28.353-.044-.036-.071-.007-.03.033,4.988,4.922,26.325,23.842,31.722,28.407.114.1.185.016.077-.086" fill="#263238"/>
        <path id="Path_8766" data-name="Path 8766" d="M235.809,226.084c-1.721-2.245-4.535-4.2-7.439-4.149-.113,0-.108.162-.022.2a39.059,39.059,0,0,1,7.218,4.2.178.178,0,0,0,.248-.045.18.18,0,0,0,0-.209" fill="#263238"/>
        <path id="Path_8767" data-name="Path 8767" d="M236.493,228.327c-1.721-2.245-4.535-4.2-7.439-4.15-.113,0-.108.162-.022.2a39.068,39.068,0,0,1,7.219,4.2.178.178,0,0,0,.248-.045.18.18,0,0,0,0-.209" fill="#263238"/>
        <path id="Path_8768" data-name="Path 8768" d="M237.177,230.569c-1.721-2.245-4.535-4.2-7.44-4.149-.112,0-.108.162-.022.2a39.058,39.058,0,0,1,7.218,4.2.178.178,0,0,0,.248-.045.18.18,0,0,0-.005-.209" fill="#263238"/>
        <path id="Path_8769" data-name="Path 8769" d="M240.17,160.013c-1.51,7.461-27.213,45.586-27.213,45.586l22.832,20.9s37.448-48.209,35.154-64.694c-2-14.341-23.464-72.008-23.464-72.008H222.71s18.945,62.882,17.46,70.219" fill="#323234"/>
        <path id="Path_8770" data-name="Path 8770" d="M237.736,219.61c-3.31-3.164-2.316-2.3-5.661-5.429-1.637-1.53-12.4-11.575-14.182-12.733-.04-.026-.093.032-.063.069,1.309,1.671,12.25,11.526,13.916,13.024,3.4,3.061,2.461,2.146,5.9,5.169a.067.067,0,0,0,.1-.005.066.066,0,0,0,0-.1" fill="#686868"/>
        <path id="Path_8771" data-name="Path 8771" d="M244.428,157.559c-.355-1.863-.757-3.718-1.151-5.572q-1.209-5.682-2.556-11.333-2.674-11.207-5.819-22.289c-2.112-7.412-4.343-14.812-6.914-22.079-.318-.9-.645-1.793-.973-2.688a.057.057,0,0,0-.076-.028.058.058,0,0,0-.032.061c2.226,7.28,4.52,14.54,6.607,21.862q3.118,10.94,5.816,21.987c.911,3.7,1.758,7.408,2.586,11.124q.61,2.737,1.193,5.483a39.28,39.28,0,0,1,1.037,5.651,8.6,8.6,0,0,1-1.456,5.09c-.928,1.519-20.708,35.3-21.357,35.908-.051.048.027.12.078.074,2.706-2.428,22.418-36.441,22.949-38.033a10.217,10.217,0,0,0,.068-5.217" fill="#686868"/>
        <path id="Path_8772" data-name="Path 8772" d="M234.406,211.3s5.347,26.035,5.346,26.054c.072,5.243.228,9.839.53,12.208a.083.083,0,0,0,.006.038,3.664,3.664,0,0,0,.409,1.615c.013.013.018.026.031.032,1.575,1.036,43.493,1.687,44.962,1.217s.247-4.7-1.359-6.018-17.55-8.75-17.55-8.75l-5.6-26.02Z" fill="#d3766a"/>
        <path id="Path_8773" data-name="Path 8773" d="M285.7,252.463c-1.469.469-43.391-.179-44.963-1.214-.014-.007-.021-.02-.035-.034a3.692,3.692,0,0,1-.407-1.615.083.083,0,0,1-.007-.041c-.3-2.366-.455-6.961-.532-12.2,0-.007-.925-4.532-.925-4.532h26.906l1.047,4.871s15.935,7.43,17.556,8.754c1.6,1.324,2.835,5.553,1.359,6.015" fill="#ebebeb"/>
        <path id="Path_8774" data-name="Path 8774" d="M285.694,252.464c-1.472.471-43.386-.179-44.965-1.219-.607-.385-.868-6.5-.972-13.893v-.231l27.046.117-.017.459s15.932,7.425,17.549,8.751,2.832,5.552,1.36,6.016" fill="#fff"/>
        <path id="Path_8775" data-name="Path 8775" d="M285.694,252.464c-1.472.471-43.386-.179-44.965-1.219-.607-.385-.868-6.5-.972-13.893v-.231l27.046.117-.017.459s15.932,7.425,17.549,8.751S287.166,252,285.694,252.464Z" fill="none" stroke="#323234" stroke-miterlimit="10" stroke-width="1"/>
        <path id="Path_8776" data-name="Path 8776" d="M285.245,250.832c-7.063-.283-35.576-.758-42.579-.5-.057,0-.057.041,0,.045,6.994.433,35.511.677,42.579.572.149,0,.15-.109,0-.115" fill="#263238"/>
        <path id="Path_8777" data-name="Path 8777" d="M269.056,237.814c-2.773-.562-6.18-.188-8.335,1.76-.083.075.025.193.115.166a39.117,39.117,0,0,1,8.2-1.575.178.178,0,0,0,.017-.351" fill="#263238"/>
        <path id="Path_8778" data-name="Path 8778" d="M271.044,239.055c-2.772-.562-6.18-.188-8.335,1.76-.083.076.025.193.116.166a39.116,39.116,0,0,1,8.2-1.575.178.178,0,0,0,.017-.351" fill="#263238"/>
        <path id="Path_8779" data-name="Path 8779" d="M273.032,240.295c-2.773-.562-6.18-.188-8.335,1.76-.083.075.025.193.115.166a39.118,39.118,0,0,1,8.2-1.575.178.178,0,0,0,.016-.351" fill="#263238"/>
        <path id="Path_8780" data-name="Path 8780" d="M246.926,89.794a100.818,100.818,0,0,0-2.128,12.359c-.516,5.184-1.164,9.769-1.855,10.34-.783.644-4.7,3.158-6.015,3.962,0,0,12.205,37,15.354,49.328,4.565,17.879,15.5,71.515,15.5,71.515H238.646s-8.86-51.062-12.733-68.082c-3.32-14.592-16.04-58.368-16.04-58.368A25.415,25.415,0,0,1,210.9,89.8s36.026-.02,36.022,0" fill="#323234"/>
        <path id="Path_8781" data-name="Path 8781" d="M266.731,231.628c-4.58-.024-3.265-.082-7.844-.055-2.24.013-16.966.113-19.053.493a.049.049,0,0,0-.035.058.05.05,0,0,0,.035.035c2.1.315,16.818-.042,19.058-.1,4.579-.115,3.263-.132,7.838-.3a.067.067,0,0,0,.058-.075.066.066,0,0,0-.058-.058" fill="#686868"/>
        <path id="Path_8782" data-name="Path 8782" d="M245.005,111.032a55.712,55.712,0,0,0-8.038,5.38.1.1,0,0,0,.108.166c2.724-1.706,5.514-3.368,8.14-5.222a.193.193,0,1,0-.211-.324" fill="#686868"/>
        <path id="Path_8783" data-name="Path 8783" d="M242.783,90.9c-.023-.1-.2-.094-.187.015a98.461,98.461,0,0,1,1.025,9.828c.1,1.525.178,10.021-2.523,9.82-.452-.034-.742-.429-.913-1.076a10.523,10.523,0,0,1-.049-2.6c.019-1.784-.02-3.565-.143-5.345a48.189,48.189,0,0,0-1.632-9.812.087.087,0,0,0-.1-.066.086.086,0,0,0-.065.1,91.362,91.362,0,0,1,1.313,13.692c.009,2.211-.574,5.634,1.738,5.616,2.355-.019,3-5.7,3.048-7.234a50.389,50.389,0,0,0-1.51-12.935" fill="#686868"/>
        <path id="Path_8784" data-name="Path 8784" d="M241.2,110.779a14.271,14.271,0,0,0-.319,1.813,3.949,3.949,0,0,0-.024,1.454c.024.09.147.08.187.011a5.076,5.076,0,0,0,.392-1.471c.115-.563.243-1.125.343-1.692a.3.3,0,0,0-.578-.114" fill="#686868"/>
        <path id="Path_8785" data-name="Path 8785" d="M236.522,223.25c-.077-.7-.169-1.394-.264-2.088-.183-1.336-.4-2.665-.6-4-.4-2.678-.843-5.347-1.3-8.015-.913-5.319-1.969-10.622-3.083-15.9-.629-2.984-1.361-5.933-2.132-8.88-.054-.205-.334-.106-.3.094.469,2.7.921,5.4,1.454,8.083s1.062,5.355,1.578,8.036c1.018,5.3,1.966,10.614,2.98,15.915.286,1.5.546,3,.828,4.493q.212,1.12.443,2.237c.154.741.379,1.471.5,2.219.011.071.114.038.1-.032-.112-.714-.125-1.444-.2-2.163" fill="#686868"/>
        <path id="Path_8786" data-name="Path 8786" d="M255.35,176.863c-.97-4.834-2.279-9.607-3.594-14.356-2.647-9.561-5.765-18.983-8.875-28.4q-1.343-4.071-2.688-8.142c-.449-1.356-2.645-8.672-2.918-9.367a.059.059,0,0,0-.073-.04.06.06,0,0,0-.04.074c.629,2.492,1.493,6.126,2.221,8.593.719,2.438,1.5,4.859,2.261,7.286,1.488,4.77,3,9.533,4.447,14.316,2.856,9.454,5.692,18.9,8.011,28.509.65,2.69,1.3,5.376,1.889,8.079s2.356,9.39,2.921,12.093c.015.074.139.054.132-.021-.487-4.927-2.72-13.773-3.694-18.623" fill="#686868"/>
        <path id="Path_8787" data-name="Path 8787" d="M237.237,202.153c-1.6-9.223-3.525-18.4-5.653-27.511q-3.208-13.741-7.145-27.3c-2.624-9.032-5.531-17.985-8.654-26.857a112.18,112.18,0,0,1-3.957-12.776c-.96-4.308-1.448-8.969-.445-13.314a22.065,22.065,0,0,1,1-3.237c.029-.073-.077-.135-.109-.06-3.5,8.164-1.23,17.1,1.438,25.145,1.462,4.41,3.021,8.787,4.463,13.2q2.219,6.8,4.253,13.661c2.689,9.06,5.186,18.176,7.422,27.36s4.228,18.422,5.981,27.708c1.759,9.319,3.237,18.676,4.737,28.039.2,1.218.35,2.442.509,3.666.009.068.116.067.108,0-1.123-9.277-2.341-18.519-3.943-27.728" fill="#686868"/>
        <path id="Path_8788" data-name="Path 8788" d="M270.093,26.518l-5.685,18.128c-.228.528.018.983.549,1.013l9.491.542a1.54,1.54,0,0,0,1.372-.9l5.685-18.128c.228-.53-.019-.983-.549-1.013l-9.493-.545a1.537,1.537,0,0,0-1.373.9" fill="#fff"/>
        <path id="Path_8789" data-name="Path 8789" d="M270.093,26.518l-5.685,18.128c-.228.528.018.983.549,1.013l9.491.542a1.54,1.54,0,0,0,1.372-.9l5.685-18.128c.228-.53-.019-.983-.549-1.013l-9.493-.545A1.538,1.538,0,0,0,270.093,26.518Z" fill="none" stroke="#323234" stroke-miterlimit="10" stroke-width="1"/>
        <path id="Path_8790" data-name="Path 8790" d="M272.647,27.508a.808.808,0,1,1-.742-.869h0a.808.808,0,0,1,.741.869" fill="#263238"/>
        <path id="Path_8791" data-name="Path 8791" d="M283.928,46.339a20.376,20.376,0,0,0-.459-2.926c-.846-4.279-1.666-5.471-.328-9.709.918-2.908-.545-4.742-2.8-2.509a10.543,10.543,0,0,0-2.115,3.09,22.638,22.638,0,0,0-5.81-3.935c-2.3-1.107-6.353-1.057-3.259,2.114,2.2,2.252,4.27,3.016,5.31,4.558-3.741-1.447-9.647-2.873-10.659-.529-.826,1.913,1.853,2.941,1.853,2.941s-3.154-.224-3.522,1.667c-.336,1.723,1.784,2.394,1.784,2.394s-1.937.193-1.94,1.915c0,1.783,3,1.485,4.99,2.7a8.908,8.908,0,0,0,.827,4.328l.067.026c-3.507,4.289-6.941,9.729-7.495,9.65-2.54-.362-11.971-9.332-18.551-15.644-7.988-7.663-6.881,1.4-5.043,6.093,4.613,11.786,15.685,27.427,20.667,27.821,2.37.188,6.57,1.035,9.863-1.486,7.186-5.5,13.615-16.5,15.2-22.939v-.018a27.459,27.459,0,0,0,1.411-9.605" fill="#fff"/>
        <path id="Path_8792" data-name="Path 8792" d="M283.928,46.339a20.376,20.376,0,0,0-.459-2.926c-.846-4.279-1.666-5.471-.328-9.709.918-2.908-.545-4.742-2.8-2.509a10.543,10.543,0,0,0-2.115,3.09,22.638,22.638,0,0,0-5.81-3.935c-2.3-1.107-6.353-1.057-3.259,2.114,2.2,2.252,4.27,3.016,5.31,4.558-3.741-1.447-9.647-2.873-10.659-.529-.826,1.913,1.853,2.941,1.853,2.941s-3.154-.224-3.522,1.667c-.336,1.723,1.784,2.394,1.784,2.394s-1.937.193-1.94,1.915c0,1.783,3,1.485,4.99,2.7a8.908,8.908,0,0,0,.827,4.328l.067.026c-3.507,4.289-6.941,9.729-7.495,9.65-2.54-.362-11.971-9.332-18.551-15.644-7.988-7.663-6.881,1.4-5.043,6.093,4.613,11.786,15.685,27.427,20.667,27.821,2.37.188,6.57,1.035,9.863-1.486,7.186-5.5,13.615-16.5,15.2-22.939v-.018A27.466,27.466,0,0,0,283.928,46.339Z" fill="none" stroke="#323234" stroke-miterlimit="10" stroke-width="1"/>
        <path id="Path_8793" data-name="Path 8793" d="M274.621,41.5a15.322,15.322,0,0,0-8.894-2.113c-.078.009-.114.073-.041.08a37.8,37.8,0,0,1,8.92,2.066c.02.008.031-.022.015-.033" fill="#263238"/>
        <path id="Path_8794" data-name="Path 8794" d="M272.941,45a17.21,17.21,0,0,0-9-1.579c-.078.011-.109.078-.036.082a40.474,40.474,0,0,1,9.028,1.531c.02.006.03-.024.013-.034" fill="#263238"/>
        <path id="Path_8795" data-name="Path 8795" d="M251.181,53.523l-1.768,2.137-.363.442-7.03,8.508s-6.371-10.407-7.657-16.323c-.772-3.555-.218-5.652,1.332-6.035a1.973,1.973,0,0,1,.35-.053c1-.086,2.348.442,3.957,1.629,4.531,3.35,11.179,9.695,11.179,9.695" fill="#fe8e14"/>
        <path id="Path_8796" data-name="Path 8796" d="M251.181,53.523l-1.768,2.137-.363.442-7.03,8.508s-6.371-10.407-7.657-16.323c-.772-3.555-.218-5.652,1.332-6.035a1.973,1.973,0,0,1,.35-.053c1-.086,2.348.442,3.957,1.629C244.533,47.177,251.181,53.523,251.181,53.523Z" fill="none" stroke="#323234" stroke-miterlimit="10" stroke-width="1"/>
        <path id="Path_8797" data-name="Path 8797" d="M236.042,42.2a1.973,1.973,0,0,0-.35.053,5.3,5.3,0,0,0,.475.686,5.281,5.281,0,0,0-.125-.739m3.37,12.623a7.311,7.311,0,0,0-.541,1.979,7.421,7.421,0,0,0,1.035-1.774,7.312,7.312,0,0,0,.541-1.979,7.421,7.421,0,0,0-1.035,1.774" fill="#fff"/>
        <path id="Path_8798" data-name="Path 8798" d="M240.651,61.07a66.16,66.16,0,0,1,7.55-9.68.056.056,0,1,1,.084.073c-.31.419-6.771,9.052-7.521,9.7-.062.054-.141-.033-.113-.1" fill="#263238"/>
        <g id="Group_3500" data-name="Group 3500" opacity="0.05">
          <g id="Group_3499" data-name="Group 3499">
            <g id="Group_3498" data-name="Group 3498" clip-path="url(#clip-path-11)">
              <g id="Group_3497" data-name="Group 3497">
                <g id="Group_3496" data-name="Group 3496" clip-path="url(#clip-path-12)">
                  <path id="Path_8799" data-name="Path 8799" d="M246.519,59.171l-4.5,5.436s-6.372-10.4-7.659-16.322c-.888-4.082-.023-6.25,2.092-6.088Z"/>
                </g>
              </g>
            </g>
          </g>
        </g>
        <path id="Path_8800" data-name="Path 8800" d="M247.8,91.226c-.9.979-39.02,5.039-39.238,4.776-.584-.712,2.922-39.235,18.539-53.347,2.752-2.487,7.612-1.777,9.866-.5,1.126.638,3.083,5.963,5,12.179,1.465,4.749,6.4,36.268,5.833,36.891" fill="#fe8e14"/>
        <path id="Path_8801" data-name="Path 8801" d="M247.8,91.226c-.9.979-39.02,5.039-39.238,4.776-.584-.712,2.922-39.235,18.539-53.347,2.752-2.487,7.612-1.777,9.866-.5,1.126.638,3.083,5.963,5,12.179C243.431,59.083,248.367,90.6,247.8,91.226Z" fill="none" stroke="#323234" stroke-miterlimit="10" stroke-width="1"/>
        <path id="Path_8802" data-name="Path 8802" d="M228.579,52.748c2.072-7.756-1.312-11.445-6.162-5.588-9.547,11.531-17.454,26.25-16.41,30.159,1.149,4.3,11.319,19.253,18.3,25.149,1.215,1.107,6.943,7.5,9.434,8.928s6.388,3.72,9.011,2.351a4.609,4.609,0,0,0,2.056-2.474s2.91-.137,3.671-1.644a5.252,5.252,0,0,0,.4-3.068s2.845.27,3.476-1.368a4.263,4.263,0,0,0-.077-2.9,2.873,2.873,0,0,0,2.417-2.217c.407-2.2-3.4-6.583-5.661-8.35-1.989-1.551-9.607-3.721-13.446-4.749a182.1,182.1,0,0,1-12.635-14.112" fill="#fff"/>
        <path id="Path_8803" data-name="Path 8803" d="M228.579,52.748c2.072-7.756-1.312-11.445-6.162-5.588-9.547,11.531-17.454,26.25-16.41,30.159,1.149,4.3,11.319,19.253,18.3,25.149,1.215,1.107,6.943,7.5,9.434,8.928s6.388,3.72,9.011,2.351a4.609,4.609,0,0,0,2.056-2.474s2.91-.137,3.671-1.644a5.252,5.252,0,0,0,.4-3.068s2.845.27,3.476-1.368a4.263,4.263,0,0,0-.077-2.9,2.873,2.873,0,0,0,2.417-2.217c.407-2.2-3.4-6.583-5.661-8.35-1.989-1.551-9.607-3.721-13.446-4.749a182.1,182.1,0,0,1-12.635-14.112" fill="none" stroke="#323234" stroke-miterlimit="10" stroke-width="1"/>
        <path id="Path_8804" data-name="Path 8804" d="M252.315,101.976c-1.959-2.457-4.538-4.2-7.014-6.088a.054.054,0,0,0-.064.086c2.484,1.848,4.568,4.166,6.973,6.108a.076.076,0,0,0,.1-.107" fill="#263238"/>
        <path id="Path_8805" data-name="Path 8805" d="M248.949,106.326A8.18,8.18,0,0,0,247.27,105q-.939-.644-1.9-1.256c-1.281-.818-2.581-1.608-3.9-2.358-.059-.034-.124.048-.065.086,1.276.817,2.538,1.654,3.778,2.525q.932.653,1.851,1.322a9.668,9.668,0,0,0,1.791,1.178.109.109,0,0,0,.139-.067.107.107,0,0,0-.014-.1" fill="#263238"/>
        <path id="Path_8806" data-name="Path 8806" d="M244.754,111.235a5.708,5.708,0,0,0-1.576-1.117q-.886-.541-1.768-1.092c-1.175-.734-2.349-1.469-3.5-2.244-.057-.039-.121.047-.064.086,1.163.793,2.314,1.6,3.484,2.385q.862.578,1.729,1.144a5.361,5.361,0,0,0,1.657.9.038.038,0,0,0,.042-.034.038.038,0,0,0-.008-.027" fill="#263238"/>
        <path id="Path_8807" data-name="Path 8807" d="M226.837,63.165l-14.811-2.8s6.325-11.114,11.1-15.288,7.722-2.928,6.941,2.922-3.233,15.164-3.233,15.164" fill="#ffc727"/>
        <path id="Path_8808" data-name="Path 8808" d="M230.07,48c-.033.264-.073.541-.119.818-.013.125-.033.251-.053.376-.917,5.837-3.06,13.969-3.06,13.969l-4.023-.758-.4-.079L212.028,60.37s2.684-4.716,5.87-9.154c.106-.145.211-.3.323-.442a36.469,36.469,0,0,1,4.907-5.692c4.782-4.175,7.723-2.928,6.945,2.922" fill="#fe8e14"/>
        <path id="Path_8809" data-name="Path 8809" d="M230.07,48c-.033.264-.073.541-.119.818-.013.125-.033.251-.053.376-.917,5.837-3.06,13.969-3.06,13.969l-4.023-.758-.4-.079L212.028,60.37s2.684-4.716,5.87-9.154c.106-.145.211-.3.323-.442a36.469,36.469,0,0,1,4.907-5.692C227.907,40.906,230.849,42.154,230.07,48Z" fill="none" stroke="#323234" stroke-miterlimit="10" stroke-width="1"/>
        <path id="Path_8810" data-name="Path 8810" d="M214.583,57.319a69.328,69.328,0,0,1,12.7,2.03.057.057,0,0,1,.038.073.058.058,0,0,1-.062.04c-.542-.072-11.732-1.633-12.711-1.99-.081-.03-.041-.146.032-.154" fill="#263238"/>
        <path id="Path_8811" data-name="Path 8811" d="M229.516,54.377a.04.04,0,0,0-.036-.044.042.042,0,0,0-.039.021,14.409,14.409,0,0,0-.619,1.467c-.044.114-.084.23-.127.344.2-1.256.381-2.513.556-3.765a.048.048,0,0,0-.045-.05.047.047,0,0,0-.049.034c-.795,4.3-1.507,6.364-2.414,10.638l-1.3-.144a.079.079,0,0,0-.084.074.08.08,0,0,0,.058.081l1.433.338a.169.169,0,0,0,.181-.1,25.153,25.153,0,0,0,1.523-6.213c.169-.389.342-.777.489-1.173a10.408,10.408,0,0,0,.478-1.512" fill="#263238"/>
        <path id="Path_8812" data-name="Path 8812" d="M236.037,49.849c-2.292.756-6.62-2.466-8.458-5.222-.125-.19.01-8.2-.129-9.789-.03-.326,10.2,1.554,10.2,1.554a25.38,25.38,0,0,0-.434,6.188c.024.231,1.04,6.537-1.175,7.269" fill="#fff"/>
        <path id="Path_8813" data-name="Path 8813" d="M236.037,49.849c-2.292.756-6.62-2.466-8.458-5.222-.125-.19.01-8.2-.129-9.789-.03-.326,10.2,1.554,10.2,1.554a25.38,25.38,0,0,0-.434,6.188C237.237,42.811,238.252,49.116,236.037,49.849Z" fill="none" stroke="#323234" stroke-miterlimit="10" stroke-width="1"/>
        <path id="Path_8814" data-name="Path 8814" d="M237.494,36.385l-.006.008c-.009.049-.365.146-.419.465-.09.547-.264,1.674-.344,2.68a37.552,37.552,0,0,0,.089,3.84,2.629,2.629,0,0,1-.629.1c-5.444.349-7.853-6.16-8.582-8.675a1.651,1.651,0,0,1,.176.015c.266.018.62.061,1.045.117l.326.046c.68.1,1.489.225,2.333.357.277.045.554.09.839.14.6.1,1.215.208,1.784.3.243.049.484.09.712.127.249.041.5.089.725.125.114.022.228.044.334.059a1.548,1.548,0,0,0,.157.031c.334.059.619.11.847.153l.406.072a1.189,1.189,0,0,1,.171.036h.028Z" fill="#e5e5e5"/>
        <path id="Path_8815" data-name="Path 8815" d="M225.492,23.167c-.968,3.583,1.242,13.768,3.843,15.97,3.77,3.192,9.777,3.311,12.452-1.178,2.593-4.352-.523-17.575-3.413-19.558-4.257-2.921-11.452-.526-12.882,4.766" fill="#fff"/>
        <path id="Path_8816" data-name="Path 8816" d="M225.492,23.167c-.968,3.583,1.242,13.768,3.843,15.97,3.77,3.192,9.777,3.311,12.452-1.178,2.593-4.352-.523-17.575-3.413-19.558C234.117,15.48,226.922,17.875,225.492,23.167Z" fill="none" stroke="#323234" stroke-miterlimit="10" stroke-width="1"/>
        <path id="Path_8817" data-name="Path 8817" d="M226.969,33.136c1.82-.588,1.016-5.321,1.016-5.321s2.169-1.288,2.141-5.715c0,0,2.343,3.947,9.925,1.624a6.749,6.749,0,0,0-1.285-3.937,28.665,28.665,0,0,1,2.7,3.827s.7-6.777-5.207-8.064c-2.349-.512-5.643.267-10.252,3.67,0,0-1.511-2.855-2.022-2.353S225.1,20,225.1,20s-2.344-.29-2.635.241c-.25.457,1.99.636,1.99.636a4.469,4.469,0,0,0-1.938,5.508c1.162,3.5,3.55,7.046,4.449,6.755" fill="#323234"/>
        <path id="Path_8818" data-name="Path 8818" d="M225.064,20.71a4.082,4.082,0,0,0-3.5,4.125,7.573,7.573,0,0,0,1.068,3.267,14.193,14.193,0,0,0,2.207,2.868c.046.049.115-.032.068-.08a10.8,10.8,0,0,1-1.853-2.745,9.962,9.962,0,0,1-1.043-2.992,3.919,3.919,0,0,1,3.072-4.329c.063-.015.042-.122-.023-.113" fill="#323234"/>
        <path id="Path_8819" data-name="Path 8819" d="M231.641,15.269a15.843,15.843,0,0,0-3.546,2.076,11.551,11.551,0,0,0-2.753,2.757.053.053,0,0,0,.08.068,20.734,20.734,0,0,1,6.1-4.266c2.073-1.014,4.658-1.474,6.639,0a.032.032,0,0,0,.044-.011.032.032,0,0,0,0-.037c-1.818-1.6-4.45-1.443-6.566-.587" fill="#323234"/>
        <path id="Path_8820" data-name="Path 8820" d="M228.082,31.508s-2.37-3.28-3.864-2.432.322,5.628,2.1,6.26a1.8,1.8,0,0,0,2.37-.928q.017-.036.03-.072Z" fill="#fff"/>
        <path id="Path_8821" data-name="Path 8821" d="M228.082,31.508s-2.37-3.28-3.864-2.432.322,5.628,2.1,6.26a1.8,1.8,0,0,0,2.37-.928q.017-.036.03-.072Z" fill="none" stroke="#323234" stroke-miterlimit="10" stroke-width="1"/>
        <path id="Path_8822" data-name="Path 8822" d="M224.772,30.433a.024.024,0,0,0-.009.047,4.543,4.543,0,0,1,2.391,2.806.994.994,0,0,0-1.364-.339,1.029,1.029,0,0,0-.126.09c-.032.024,0,.074.035.066a1.107,1.107,0,0,1,1.223.367,5.246,5.246,0,0,1,.6.975c.06.11.259.047.215-.079l-.011-.028c.008-1.58-1.253-3.77-2.953-3.9" fill="#323234"/>
        <path id="Path_8823" data-name="Path 8823" d="M236.112,29.015c-.011-.025-.048.042-.042.07.142.677.191,1.476-.384,1.811-.018.011-.01.044.013.038.733-.239.657-1.3.414-1.919" fill="#263238"/>
        <path id="Path_8824" data-name="Path 8824" d="M235.377,28.412c-1.11.111-.806,2.323.222,2.22,1.012-.1.708-2.313-.222-2.22" fill="#323234"/>
        <path id="Path_8825" data-name="Path 8825" d="M240.011,28.216c0-.027.058.025.061.053.073.689.271,1.464.922,1.607.02,0,.023.039,0,.039-.771,0-1.024-1.035-.983-1.7" fill="#263238"/>
        <path id="Path_8826" data-name="Path 8826" d="M240.525,27.413c1.09-.235,1.48,1.963.47,2.18-.994.215-1.384-1.984-.47-2.18" fill="#323234"/>
        <path id="Path_8827" data-name="Path 8827" d="M234.34,27.783a8.578,8.578,0,0,0,.815-.419,1.486,1.486,0,0,0,.75-.586.473.473,0,0,0-.153-.556,1.17,1.17,0,0,0-1.185.041,1.717,1.717,0,0,0-.88.872.5.5,0,0,0,.654.648" fill="#323234"/>
        <path id="Path_8828" data-name="Path 8828" d="M241.058,26.206a8.686,8.686,0,0,1-.91-.108,1.48,1.48,0,0,1-.908-.286.473.473,0,0,1-.051-.574,1.169,1.169,0,0,1,1.125-.377,1.719,1.719,0,0,1,1.13.508.5.5,0,0,1-.386.836" fill="#323234"/>
        <path id="Path_8829" data-name="Path 8829" d="M236.239,35.108c.186.138.381.336.632.323a1.823,1.823,0,0,0,.713-.274.024.024,0,0,1,.033.008.024.024,0,0,1,0,.023.931.931,0,0,1-.818.491.735.735,0,0,1-.622-.532c-.016-.038.034-.06.061-.04" fill="#263238"/>
        <path id="Path_8830" data-name="Path 8830" d="M236.678,32.958a2.353,2.353,0,0,0,1.7.824,2.957,2.957,0,0,0,.844-.077.852.852,0,0,0,.158-.04c.049-.013.094-.025.147-.044a.173.173,0,0,0,.117-.172.315.315,0,0,0-.016-.069v-.005l-.01-.06c-.058-.53-.219-1.324-.219-1.324.206.07,1.249.377,1.2.1a35.427,35.427,0,0,0-1.875-6.935.064.064,0,0,0-.122.034c.346,2.192,1.075,4.307,1.458,6.5a4.134,4.134,0,0,0-1.147-.183c-.072.032.339,1.531.346,1.771a.114.114,0,0,1,0,.026,3.264,3.264,0,0,1-2.517-.418c-.056-.032-.1.022-.055.071" fill="#323234"/>
        <path id="Path_8831" data-name="Path 8831" d="M238.873,33.48a2.8,2.8,0,0,1-.99,1.011,1.262,1.262,0,0,1-.75.151c-.567-.069-.65-.569-.608-1.012a2.969,2.969,0,0,1,.155-.691,3.611,3.611,0,0,0,2.193.541" fill="#263238"/>
        <path id="Path_8832" data-name="Path 8832" d="M237.883,34.492a1.262,1.262,0,0,1-.75.151c-.567-.069-.65-.569-.608-1.012a1.3,1.3,0,0,1,1.358.861" fill="#9e9e9e"/>
        <path id="Path_8833" data-name="Path 8833" d="M30.923,190.07c4.931-2,12.57,5.357,17.063,16.432s4.137,21.675-.793,23.675-12.57-5.357-17.063-16.432-4.138-21.675.793-23.675" fill="#89c2b9"/>
        <path id="Path_8834" data-name="Path 8834" d="M30.923,190.07c4.931-2,12.57,5.357,17.063,16.432s4.137,21.675-.793,23.675-12.57-5.357-17.063-16.432S25.992,192.07,30.923,190.07Z" fill="none" stroke="#353537" stroke-miterlimit="10" stroke-width="1"/>
        <path id="Path_8835" data-name="Path 8835" d="M57.265,208.949c3.332-4.524,8.342-6.49,11.191-4.391s2.456,7.466-.876,11.989-8.343,6.49-11.191,4.391-2.456-7.466.876-11.989" fill="#89c2b9"/>
        <path id="Path_8836" data-name="Path 8836" d="M57.265,208.949c3.332-4.524,8.342-6.49,11.191-4.391s2.456,7.466-.876,11.989-8.343,6.49-11.191,4.391S53.933,213.473,57.265,208.949Z" fill="none" stroke="#353537" stroke-miterlimit="9.998" stroke-width="1"/>
        <path id="Path_8837" data-name="Path 8837" d="M29.735,229.7a8.056,8.056,0,1,1-8.158,8.055,8.055,8.055,0,0,1,8.158-8.055" fill="#89c2b9"/>
        <ellipse id="Ellipse_303" data-name="Ellipse 303" cx="8.158" cy="8.055" rx="8.158" ry="8.055" transform="translate(21.577 229.705)" fill="none" stroke="#353537" stroke-miterlimit="10" stroke-width="1"/>
        <path id="Path_8838" data-name="Path 8838" d="M34.573,208.36c1.74,6.271,8.135,10.205,10.908,16.1a27.944,27.944,0,0,1,2.032,7.769,154.93,154.93,0,0,1,1.727,20.2" fill="none" stroke="#353537" stroke-miterlimit="10" stroke-width="1"/>
        <path id="Path_8839" data-name="Path 8839" d="M62.079,240.553a2.6,2.6,0,1,1-2.628,2.6,2.6,2.6,0,0,1,2.628-2.6h0" fill="#353537"/>
        <ellipse id="Ellipse_304" data-name="Ellipse 304" cx="2.327" cy="2.298" rx="2.327" ry="2.298" transform="translate(14.08 215.834)" fill="none" stroke="#353537" stroke-miterlimit="10" stroke-width="1"/>
        <path id="Path_8840" data-name="Path 8840" d="M61.693,213.713c-4.122,3.065-6.089,8.158-7.449,13.072s-2.374,10.075-5.3,14.273" fill="none" stroke="#353537" stroke-miterlimit="10" stroke-width="1"/>
        <path id="Path_8841" data-name="Path 8841" d="M29.9,237.968c-1.082,1.311-.962,3.241-.4,4.837s1.512,3.053,1.957,4.687.25,3.619-1.1,4.661" fill="none" stroke="#353537" stroke-miterlimit="10" stroke-width="1"/>
      </g>
    </g>
    <g id="Group_3504" data-name="Group 3504">
      <g id="Group_3503" data-name="Group 3503" clip-path="url(#clip-path)">
        <path id="Path_8842" data-name="Path 8842" d="M67.543,45.282a1.937,1.937,0,0,1,.168,1.468l-9.2,32.1a1.931,1.931,0,0,1-2.389,1.324h0l-31.55-9.047a1.931,1.931,0,0,1-1.324-2.388L34.42,29.759a1.93,1.93,0,0,1,2.388-1.324L61.483,35.51a1.931,1.931,0,0,1,1.156.919Z" fill="#f5f5f5"/>
        <path id="Path_8843" data-name="Path 8843" d="M67.543,45.282a1.937,1.937,0,0,1,.168,1.468l-9.2,32.1a1.931,1.931,0,0,1-2.389,1.324h0l-31.55-9.047a1.931,1.931,0,0,1-1.324-2.388L34.42,29.759a1.93,1.93,0,0,1,2.388-1.324L61.483,35.51a1.931,1.931,0,0,1,1.156.919Z" fill="none" stroke="#999" stroke-linecap="round" stroke-linejoin="round" stroke-width="1"/>
        <line id="Line_387" data-name="Line 387" x2="22.271" y2="6.386" transform="translate(36.393 47.395)" fill="none" stroke="#999" stroke-linecap="round" stroke-linejoin="round" stroke-width="1"/>
        <line id="Line_388" data-name="Line 388" x2="12.992" y2="3.726" transform="translate(37.989 41.828)" fill="none" stroke="#999" stroke-linecap="round" stroke-linejoin="round" stroke-width="1"/>
        <line id="Line_389" data-name="Line 389" x2="22.271" y2="6.386" transform="translate(34.796 52.964)" fill="none" stroke="#999" stroke-linecap="round" stroke-linejoin="round" stroke-width="1"/>
        <line id="Line_390" data-name="Line 390" x2="22.271" y2="6.386" transform="translate(33.2 58.531)" fill="none" stroke="#999" stroke-linecap="round" stroke-linejoin="round" stroke-width="1"/>
        <line id="Line_391" data-name="Line 391" x2="22.271" y2="6.386" transform="translate(31.603 64.099)" fill="none" stroke="#999" stroke-linecap="round" stroke-linejoin="round" stroke-width="1"/>
      </g>
    </g>
    <g id="Group_3506" data-name="Group 3506">
      <g id="Group_3505" data-name="Group 3505" clip-path="url(#clip-path-14)">
        <path id="Path_8844" data-name="Path 8844" d="M17.427,16.907a.7.7,0,0,1,.334.412l3.425,11.493a.694.694,0,0,1-.465.863h0L9.42,33.043a.7.7,0,0,1-.863-.467L4.4,18.618a.7.7,0,0,1,.467-.862L13.7,15.123a.687.687,0,0,1,.527.055Z" fill="#ddd"/>
        <path id="Path_8845" data-name="Path 8845" d="M17.427,16.907a.7.7,0,0,1,.334.412l3.425,11.493a.694.694,0,0,1-.465.863h0L9.42,33.043a.7.7,0,0,1-.863-.467L4.4,18.618a.7.7,0,0,1,.467-.862L13.7,15.123a.687.687,0,0,1,.527.055Z" fill="none" stroke="#999" stroke-linecap="round" stroke-linejoin="round" stroke-width="0.5"/>
      </g>
    </g>
    <g id="Group_3508" data-name="Group 3508">
      <g id="Group_3507" data-name="Group 3507" clip-path="url(#clip-path-15)">
        <path id="Path_8846" data-name="Path 8846" d="M58.269,4.435a.436.436,0,0,1,.046.331l-1.876,7.3a.435.435,0,0,1-.529.315h0l-7.175-1.845A.437.437,0,0,1,48.42,10L50.7,1.14a.435.435,0,0,1,.529-.316h0l5.611,1.444a.437.437,0,0,1,.267.2Z" fill="#ddd"/>
        <path id="Path_8847" data-name="Path 8847" d="M58.269,4.435a.436.436,0,0,1,.046.331l-1.876,7.3a.435.435,0,0,1-.529.315h0l-7.175-1.845A.437.437,0,0,1,48.42,10L50.7,1.14a.435.435,0,0,1,.529-.316h0l5.611,1.444a.437.437,0,0,1,.267.2Z" fill="none" stroke="#999" stroke-linecap="round" stroke-linejoin="round" stroke-width="0.5"/>
      </g>
    </g>
    <g id="Group_3510" data-name="Group 3510">
      <g id="Group_3509" data-name="Group 3509" clip-path="url(#clip-path)">
        <path id="Path_8848" data-name="Path 8848" d="M38.681,123.315a4.211,4.211,0,1,1-2.976,5.157A4.21,4.21,0,0,1,38.681,123.315Z" fill="none" stroke="#999" stroke-linecap="round" stroke-linejoin="round" stroke-width="1"/>
        <path id="Path_8849" data-name="Path 8849" d="M49.448,137.079a6.877,6.877,0,0,0-13.205,3.541" fill="none" stroke="#999" stroke-linecap="round" stroke-linejoin="round" stroke-width="1"/>
        <line id="Line_392" data-name="Line 392" y1="9.12" x2="34.016" transform="translate(26.775 113.424)" fill="none" stroke="#999" stroke-linecap="round" stroke-linejoin="round" stroke-width="1"/>
        <rect id="Rectangle_3318" data-name="Rectangle 3318" width="35.217" height="26.03" rx="2" transform="translate(25.189 116.628) rotate(-15.009)" fill="none" stroke="#999" stroke-linecap="round" stroke-linejoin="round" stroke-width="1"/>
        <line id="Line_393" data-name="Line 393" y1="2.379" x2="8.874" transform="translate(50.203 121.81)" fill="none" stroke="#999" stroke-linecap="round" stroke-linejoin="round" stroke-width="1"/>
        <line id="Line_394" data-name="Line 394" y1="1.388" x2="5.177" transform="translate(51.393 127.237)" fill="none" stroke="#999" stroke-linecap="round" stroke-linejoin="round" stroke-width="1"/>
        <rect id="Rectangle_3319" data-name="Rectangle 3319" width="28.044" height="1.147" transform="translate(106.745 73.762)" fill="#89c2b9"/>
        <rect id="Rectangle_3320" data-name="Rectangle 3320" width="54.175" height="2.294" transform="translate(106.745 85.872)" fill="#dad9d8"/>
        <rect id="Rectangle_3321" data-name="Rectangle 3321" width="7.267" height="2.294" transform="translate(184.375 85.872)" fill="#dad9d8"/>
        <rect id="Rectangle_3322" data-name="Rectangle 3322" width="11.345" height="2.294" transform="translate(171.374 85.872)" fill="#dad9d8"/>
        <rect id="Rectangle_3323" data-name="Rectangle 3323" width="54.175" height="2.296" transform="translate(106.745 91.225)" fill="#dad9d8"/>
        <rect id="Rectangle_3324" data-name="Rectangle 3324" width="7.267" height="2.296" transform="translate(184.375 91.225)" fill="#dad9d8"/>
        <rect id="Rectangle_3325" data-name="Rectangle 3325" width="11.345" height="2.296" transform="translate(171.374 91.225)" fill="#dad9d8"/>
        <rect id="Rectangle_3326" data-name="Rectangle 3326" width="54.175" height="2.294" transform="translate(106.745 96.707)" fill="#dad9d8"/>
        <rect id="Rectangle_3327" data-name="Rectangle 3327" width="7.267" height="2.294" transform="translate(184.375 96.707)" fill="#dad9d8"/>
        <rect id="Rectangle_3328" data-name="Rectangle 3328" width="11.345" height="2.294" transform="translate(171.374 96.707)" fill="#dad9d8"/>
        <rect id="Rectangle_3329" data-name="Rectangle 3329" width="54.175" height="2.296" transform="translate(106.745 102.188)" fill="#dad9d8"/>
        <rect id="Rectangle_3330" data-name="Rectangle 3330" width="7.267" height="2.296" transform="translate(184.375 102.188)" fill="#dad9d8"/>
        <rect id="Rectangle_3331" data-name="Rectangle 3331" width="11.345" height="2.296" transform="translate(171.374 102.188)" fill="#dad9d8"/>
        <rect id="Rectangle_3332" data-name="Rectangle 3332" width="54.175" height="2.294" transform="translate(106.745 107.542)" fill="#dad9d8"/>
        <rect id="Rectangle_3333" data-name="Rectangle 3333" width="7.267" height="2.294" transform="translate(184.375 107.542)" fill="#dad9d8"/>
        <rect id="Rectangle_3334" data-name="Rectangle 3334" width="11.345" height="2.294" transform="translate(171.374 107.542)" fill="#dad9d8"/>
        <rect id="Rectangle_3335" data-name="Rectangle 3335" width="54.175" height="2.296" transform="translate(106.745 113.023)" fill="#dad9d8"/>
        <rect id="Rectangle_3336" data-name="Rectangle 3336" width="7.267" height="2.296" transform="translate(184.375 113.023)" fill="#dad9d8"/>
        <rect id="Rectangle_3337" data-name="Rectangle 3337" width="11.345" height="2.296" transform="translate(171.374 113.023)" fill="#dad9d8"/>
        <rect id="Rectangle_3338" data-name="Rectangle 3338" width="54.175" height="2.294" transform="translate(106.745 118.377)" fill="#dad9d8"/>
        <rect id="Rectangle_3339" data-name="Rectangle 3339" width="7.267" height="2.294" transform="translate(184.375 118.377)" fill="#dad9d8"/>
        <rect id="Rectangle_3340" data-name="Rectangle 3340" width="11.345" height="2.294" transform="translate(171.374 118.377)" fill="#dad9d8"/>
        <rect id="Rectangle_3341" data-name="Rectangle 3341" width="54.175" height="2.296" transform="translate(106.745 123.858)" fill="#dad9d8"/>
        <rect id="Rectangle_3342" data-name="Rectangle 3342" width="7.267" height="2.296" transform="translate(184.375 123.858)" fill="#dad9d8"/>
        <rect id="Rectangle_3343" data-name="Rectangle 3343" width="11.345" height="2.296" transform="translate(171.374 123.858)" fill="#dad9d8"/>
        <rect id="Rectangle_3344" data-name="Rectangle 3344" width="54.175" height="2.294" transform="translate(106.745 129.34)" fill="#dad9d8"/>
        <rect id="Rectangle_3345" data-name="Rectangle 3345" width="7.267" height="2.294" transform="translate(184.375 129.34)" fill="#dad9d8"/>
        <rect id="Rectangle_3346" data-name="Rectangle 3346" width="11.345" height="2.294" transform="translate(171.374 129.34)" fill="#dad9d8"/>
        <rect id="Rectangle_3347" data-name="Rectangle 3347" width="54.175" height="2.296" transform="translate(106.745 134.693)" fill="#dad9d8"/>
        <rect id="Rectangle_3348" data-name="Rectangle 3348" width="22.563" height="2.294" transform="translate(106.745 190.513)" fill="#89c2b9"/>
        <rect id="Rectangle_3349" data-name="Rectangle 3349" width="14.15" height="2.294" transform="translate(106.745 196.377)" fill="#89c2b9"/>
        <rect id="Rectangle_3350" data-name="Rectangle 3350" width="21.033" height="2.294" transform="translate(155.184 196.377)" fill="#89c2b9"/>
        <rect id="Rectangle_3351" data-name="Rectangle 3351" width="12.238" height="2.294" transform="translate(179.404 196.377)" fill="#89c2b9"/>
        <rect id="Rectangle_3352" data-name="Rectangle 3352" width="29.574" height="2.294" transform="translate(123.444 196.377)" fill="#89c2b9"/>
        <rect id="Rectangle_3353" data-name="Rectangle 3353" width="18.865" height="2.294" transform="translate(172.776 190.513)" fill="#89c2b9"/>
        <rect id="Rectangle_3354" data-name="Rectangle 3354" width="38.369" height="2.294" transform="translate(132.111 190.513)" fill="#89c2b9"/>
        <rect id="Rectangle_3355" data-name="Rectangle 3355" width="7.267" height="2.296" transform="translate(184.375 134.693)" fill="#dad9d8"/>
        <rect id="Rectangle_3356" data-name="Rectangle 3356" width="11.345" height="2.296" transform="translate(171.374 134.693)" fill="#dad9d8"/>
        <rect id="Rectangle_3357" data-name="Rectangle 3357" width="84.769" height="3.315" transform="translate(106.745 78.224)" fill="#89c2b9"/>
        <rect id="Rectangle_3358" data-name="Rectangle 3358" width="84.769" height="3.315" transform="translate(106.745 141.322)" fill="#89c2b9"/>
        <rect id="Rectangle_3359" data-name="Rectangle 3359" width="0.637" height="0.637" transform="translate(106.873 149.224)" fill="#dad9d8"/>
        <rect id="Rectangle_3360" data-name="Rectangle 3360" width="1.275" height="0.637" transform="translate(131.857 149.224)" fill="#dad9d8"/>
        <rect id="Rectangle_3361" data-name="Rectangle 3361" width="1.275" height="0.637" transform="translate(126.759 149.224)" fill="#dad9d8"/>
        <rect id="Rectangle_3362" data-name="Rectangle 3362" width="1.275" height="0.637" transform="translate(129.308 149.224)" fill="#dad9d8"/>
        <rect id="Rectangle_3363" data-name="Rectangle 3363" width="1.275" height="0.637" transform="translate(134.407 149.224)" fill="#dad9d8"/>
        <rect id="Rectangle_3364" data-name="Rectangle 3364" width="1.275" height="0.637" transform="translate(137.084 149.224)" fill="#dad9d8"/>
        <rect id="Rectangle_3365" data-name="Rectangle 3365" width="1.275" height="0.637" transform="translate(142.183 149.224)" fill="#dad9d8"/>
        <rect id="Rectangle_3366" data-name="Rectangle 3366" width="1.275" height="0.637" transform="translate(144.732 149.224)" fill="#dad9d8"/>
        <rect id="Rectangle_3367" data-name="Rectangle 3367" width="1.275" height="0.637" transform="translate(139.634 149.224)" fill="#dad9d8"/>
        <rect id="Rectangle_3368" data-name="Rectangle 3368" width="1.275" height="0.637" transform="translate(111.334 149.224)" fill="#dad9d8"/>
        <rect id="Rectangle_3369" data-name="Rectangle 3369" width="1.275" height="0.637" transform="translate(147.282 149.224)" fill="#dad9d8"/>
        <rect id="Rectangle_3370" data-name="Rectangle 3370" width="1.275" height="0.637" transform="translate(108.785 149.224)" fill="#dad9d8"/>
        <rect id="Rectangle_3371" data-name="Rectangle 3371" width="1.275" height="0.637" transform="translate(113.883 149.224)" fill="#dad9d8"/>
        <rect id="Rectangle_3372" data-name="Rectangle 3372" width="1.275" height="0.637" transform="translate(116.433 149.224)" fill="#dad9d8"/>
        <rect id="Rectangle_3373" data-name="Rectangle 3373" width="1.275" height="0.637" transform="translate(121.66 149.224)" fill="#dad9d8"/>
        <rect id="Rectangle_3374" data-name="Rectangle 3374" width="1.275" height="0.637" transform="translate(124.209 149.224)" fill="#dad9d8"/>
        <rect id="Rectangle_3375" data-name="Rectangle 3375" width="1.275" height="0.637" transform="translate(119.11 149.224)" fill="#dad9d8"/>
        <rect id="Rectangle_3376" data-name="Rectangle 3376" width="1.275" height="0.637" transform="translate(175.579 149.224)" fill="#dad9d8"/>
        <rect id="Rectangle_3377" data-name="Rectangle 3377" width="1.275" height="0.637" transform="translate(178.129 149.224)" fill="#dad9d8"/>
        <rect id="Rectangle_3378" data-name="Rectangle 3378" width="1.275" height="0.637" transform="translate(170.481 149.224)" fill="#dad9d8"/>
        <rect id="Rectangle_3379" data-name="Rectangle 3379" width="1.275" height="0.637" transform="translate(173.03 149.224)" fill="#dad9d8"/>
        <rect id="Rectangle_3380" data-name="Rectangle 3380" width="1.275" height="0.637" transform="translate(180.678 149.224)" fill="#dad9d8"/>
        <rect id="Rectangle_3381" data-name="Rectangle 3381" width="1.275" height="0.637" transform="translate(183.228 149.224)" fill="#dad9d8"/>
        <rect id="Rectangle_3382" data-name="Rectangle 3382" width="1.275" height="0.637" transform="translate(188.454 149.224)" fill="#dad9d8"/>
        <rect id="Rectangle_3383" data-name="Rectangle 3383" width="1.275" height="0.637" transform="translate(185.777 149.224)" fill="#dad9d8"/>
        <rect id="Rectangle_3384" data-name="Rectangle 3384" width="1.275" height="0.637" transform="translate(162.704 149.224)" fill="#dad9d8"/>
        <rect id="Rectangle_3385" data-name="Rectangle 3385" width="1.275" height="0.637" transform="translate(155.056 149.224)" fill="#dad9d8"/>
        <rect id="Rectangle_3386" data-name="Rectangle 3386" width="1.275" height="0.637" transform="translate(157.606 149.224)" fill="#dad9d8"/>
        <rect id="Rectangle_3387" data-name="Rectangle 3387" width="1.275" height="0.637" transform="translate(152.507 149.224)" fill="#dad9d8"/>
        <rect id="Rectangle_3388" data-name="Rectangle 3388" width="1.275" height="0.637" transform="translate(160.155 149.224)" fill="#dad9d8"/>
        <rect id="Rectangle_3389" data-name="Rectangle 3389" width="1.275" height="0.637" transform="translate(165.254 149.224)" fill="#dad9d8"/>
        <rect id="Rectangle_3390" data-name="Rectangle 3390" width="1.275" height="0.637" transform="translate(167.803 149.224)" fill="#dad9d8"/>
        <rect id="Rectangle_3391" data-name="Rectangle 3391" width="1.275" height="0.637" transform="translate(149.831 149.224)" fill="#dad9d8"/>
        <rect id="Rectangle_3392" data-name="Rectangle 3392" width="0.637" height="0.637" transform="translate(191.004 149.224)" fill="#dad9d8"/>
        <path id="Path_8850" data-name="Path 8850" d="M167.166,167.883v-.509a3.369,3.369,0,0,1-1.912-.891l.512-.638a2.043,2.043,0,0,0,1.4.638v-1.531a4.309,4.309,0,0,1-1.275-.509,1.263,1.263,0,0,1-.381-1.021,1.389,1.389,0,0,1,.509-1.147,2.989,2.989,0,0,1,1.275-.51v-.381h.51v.381a2.691,2.691,0,0,1,1.658.638l-.51.765a4.408,4.408,0,0,0-1.148-.509v1.528a4.327,4.327,0,0,1,1.274.51,1.444,1.444,0,0,1,.384,1.021,1.242,1.242,0,0,1-.51,1.146,3.815,3.815,0,0,1-1.274.51v.509Zm-.509-5.1c-.128.128-.254.256-.254.384a.471.471,0,0,0,.126.382.75.75,0,0,0,.637.255v-1.4c-.126.128-.381.256-.509.381m1.658,3.443a.668.668,0,0,0,.254-.509c0-.128,0-.384-.128-.384a.976.976,0,0,0-.637-.254v1.4c.127-.128.383-.128.511-.256" fill="#f6bb53"/>
        <path id="Path_8851" data-name="Path 8851" d="M191.641,170.051H162.322V159.088h29.319Zm-28.171-1.274h26.769v-8.414H163.47Z" fill="#dad9d8"/>
        <path id="Path_8852" data-name="Path 8852" d="M129.287,162.108h-1.809v-1.279h5.177v1.279h-1.839v5.457h-1.529Z" fill="#999"/>
        <path id="Path_8853" data-name="Path 8853" d="M139.344,164.126a3.212,3.212,0,0,1-3.308,3.549,3.142,3.142,0,0,1-3.168-3.429,3.261,3.261,0,0,1,3.278-3.528,3.14,3.14,0,0,1,3.2,3.408m-4.867.09c0,1.319.62,2.249,1.639,2.249s1.619-.979,1.619-2.288c0-1.21-.579-2.249-1.629-2.249-1.029,0-1.629.979-1.629,2.288" fill="#999"/>
        <path id="Path_8854" data-name="Path 8854" d="M141.367,162.108h-1.809v-1.279h5.177v1.279H142.9v5.457h-1.529Z" fill="#999"/>
        <path id="Path_8855" data-name="Path 8855" d="M146.4,165.836l-.48,1.729h-1.579l2.059-6.736h2l2.09,6.736h-1.64l-.519-1.729Zm1.709-1.139-.42-1.43c-.12-.4-.24-.9-.34-1.3h-.019c-.1.4-.2.91-.311,1.3l-.4,1.43Z" fill="#999"/>
        <path id="Path_8856" data-name="Path 8856" d="M151.387,160.828h1.529v5.457h2.679v1.279h-4.208Z" fill="#999"/>
        <path id="Path_8857" data-name="Path 8857" d="M156.337,163.537a.895.895,0,1,1,.89.91.871.871,0,0,1-.89-.91m0,3.228a.895.895,0,1,1,.89.91.877.877,0,0,1-.89-.91" fill="#999"/>
      </g>
    </g>
  </g>
</svg>
